<svg width="24" height="24" viewBox="0 0 24 24" fill="none" xmlns="http://www.w3.org/2000/svg">
<path d="M16.2928 11.6558C17.0125 11.959 17.4591 12.8515 17.2937 13.64L16.9546 15.2517C16.3673 18.0244 14.2911 20 11.2968 20H7.35947C4.36515 20 2.28898 18.0244 1.70169 15.2517L1.36255 13.64C1.19711 12.8515 1.64377 11.959 2.3634 11.6558L3.53799 11.1619L8.09566 9.24695C8.88974 8.91768 9.76653 8.91768 10.5606 9.24695L15.1183 11.1619L16.2928 11.6558Z" stroke="#241D1A" stroke-width="1.5" stroke-linecap="round" stroke-linejoin="round"/>
<path d="M20 7V20" stroke="black" stroke-width="1.5" stroke-linecap="round"/>
<path d="M19 20L21 20" stroke="black" stroke-width="1.5" stroke-linecap="round"/>
<path d="M9.32812 20V10" stroke="#241D1A" stroke-width="1.5" stroke-linecap="round" stroke-linejoin="round"/>
<path d="M14.3281 8.00666V10.8008L10.3924 9.17578C9.7067 8.89637 8.94955 8.89637 8.26384 9.17578L4.32812 10.8008V8.00666C4.32812 6.79343 5.29241 5.80078 6.47098 5.80078H12.1853C13.3638 5.80078 14.3281 6.79343 14.3281 8.00666Z" stroke="#241D1A" stroke-width="1.5" stroke-linecap="round" stroke-linejoin="round"/>
<path d="M11.3281 5.69922H7.32812V3.69922C7.32812 3.14922 7.68812 2.69922 8.12813 2.69922H10.5281C10.9681 2.69922 11.3281 3.14922 11.3281 3.69922V5.69922Z" stroke="#241D1A" stroke-width="1.5" stroke-linecap="round" stroke-linejoin="round"/>
<circle cx="20" cy="5" r="3.4" fill="white" stroke="black" stroke-width="1.2"/>
<path d="M20.8721 4.11523H20.2393V6.19531C20.2393 6.3151 20.2126 6.4043 20.1592 6.46289C20.1058 6.52018 20.0368 6.54883 19.9521 6.54883C19.8662 6.54883 19.7959 6.51953 19.7412 6.46094C19.6878 6.40234 19.6611 6.3138 19.6611 6.19531V4.11523H19.0283C18.9294 4.11523 18.8558 4.09375 18.8076 4.05078C18.7594 4.00651 18.7354 3.94857 18.7354 3.87695C18.7354 3.80273 18.7601 3.74414 18.8096 3.70117C18.8604 3.6582 18.9333 3.63672 19.0283 3.63672H20.8721C20.9723 3.63672 21.0465 3.65885 21.0947 3.70312C21.1442 3.7474 21.1689 3.80534 21.1689 3.87695C21.1689 3.94857 21.1442 4.00651 21.0947 4.05078C21.0452 4.09375 20.971 4.11523 20.8721 4.11523Z" fill="black" stroke="black" stroke-width="0.3"/>
</svg>
