<svg width="30" height="30" viewBox="0 0 30 30" fill="none" xmlns="http://www.w3.org/2000/svg">
<path d="M8.75 19.611C8.83282 19.6151 8.91617 19.6172 9 19.6172H8.5C8.58383 19.6172 8.66718 19.6151 8.75 19.611ZM8.75 19.611C6.27118 19.489 4.26703 17.5618 4.02461 15.1164C3.99737 14.8416 4.22386 14.6172 4.5 14.6172H13C13.2761 14.6172 13.5026 14.8416 13.4754 15.1164C13.233 17.5618 11.2288 19.489 8.75 19.611ZM9 11.6172V9.61719M16.5 19.6172V7.61719M21 19.6172V7.61719M21 7.61719L6.79798 7.61729C6.21333 7.61729 6.10384 6.78564 6.66857 6.63432L16.3233 4.04735C16.4374 4.01678 16.5586 4.02759 16.6655 4.07789L20.7129 5.98209C20.8881 6.06455 21 6.24082 21 6.43452V7.61719ZM16 14.6172H20.5M6.8 14.6172H10.8C11.0761 14.6172 11.3 14.3933 11.3 14.1172V12.1172C11.3 11.841 11.0761 11.6172 10.8 11.6172H6.8C6.52386 11.6172 6.3 11.841 6.3 12.1172V14.1172C6.3 14.3933 6.52386 14.6172 6.8 14.6172Z" stroke="#78829D" stroke-width="1.5"/>
</svg>
