<svg width="13" height="33" viewBox="0 0 13 33" fill="none" xmlns="http://www.w3.org/2000/svg">
<path d="M4.5 33L0 31.5V26L4.5 24L9 26V31.5L4.5 33Z" fill="#FF1A1A"/>
<path d="M9 31.5L4.5 33V27.5L9 26V31.5Z" fill="#E10000"/>
<path d="M4.5 27.5L0 26L4.5 24L9 26L4.5 27.5Z" fill="#FF5E5E"/>
<path d="M4.5 27L0 25.5V20L4.5 18L9 20V25.5L4.5 27Z" fill="#FF721A"/>
<path d="M9 25.5L4.5 27V21.5L9 20V25.5Z" fill="#F0650F"/>
<path d="M4.5 21.5L0 20L4.5 18L9 20L4.5 21.5Z" fill="#FF9951"/>
<path d="M4.5 21L0 19.5V14L4.5 12L9 14V19.5L4.5 21Z" fill="#D8C415"/>
<path d="M9 19.5L4.5 21V15.5L9 14V19.5Z" fill="#B7B100"/>
<path d="M4.5 15.5L0 14L4.5 12L9 14L4.5 15.5Z" fill="#D8CF25"/>
<path d="M4.5 15L0 13.5V8L4.5 6L9 8V13.5L4.5 15Z" fill="#7AA70A"/>
<path d="M9 13.5L4.5 15V9.5L9 8V13.5Z" fill="#5A9508"/>
<path d="M4.5 9.5L0 8L4.5 6L9 8L4.5 9.5Z" fill="#91BF24"/>
<path d="M4.5 9L0 7.5V2L4.5 0L9 2V7.5L4.5 9Z" fill="#0AA739"/>
<path d="M9 7.5L4.5 9V3.5L9 2V7.5Z" fill="#089532"/>
<path d="M4.5 3.5L0 2L4.5 0L9 2L4.5 3.5Z" fill="#24BF52"/>
<path d="M4.5 21L0 19.5V14L4.5 12L9 14V19.5L4.5 21Z" fill="#CACACA"/>
<path d="M9 19.5L4.5 21V15.5L9 14V19.5Z" fill="#B1B1B1"/>
<path d="M4.5 15.5L0 14L4.5 12L9 14L4.5 15.5Z" fill="#E2E2E2"/>
<path d="M4.5 15L0 13.5V8L4.5 6L9 8V13.5L4.5 15Z" fill="#CACACA"/>
<path d="M9 13.5L4.5 15V9.5L9 8V13.5Z" fill="#B1B1B1"/>
<path d="M4.5 9.5L0 8L4.5 6L9 8L4.5 9.5Z" fill="#E2E2E2"/>
<path d="M4.5 9L0 7.5V2L4.5 0L9 2V7.5L4.5 9Z" fill="#CACACA"/>
<path d="M9 7.5L4.5 9V3.5L9 2V7.5Z" fill="#B1B1B1"/>
<path d="M4.5 3.5L0 2L4.5 0L9 2L4.5 3.5Z" fill="#E2E2E2"/>
<path d="M11.1924 20.7998H12.5996C12.6548 20.7998 12.7002 20.8452 12.7002 20.9004V25.0996C12.7002 25.1548 12.6548 25.2002 12.5996 25.2002H11.1924C11.162 25.2002 11.1332 25.1858 11.1143 25.1621L9.43457 23.0625C9.40535 23.026 9.40535 22.974 9.43457 22.9375L11.1143 20.8379C11.1332 20.8142 11.162 20.7998 11.1924 20.7998Z" fill="#FF721A" stroke="#A74203" stroke-width="0.6"/>
</svg>
