<svg width="880" height="251" viewBox="0 0 880 251" fill="none" xmlns="http://www.w3.org/2000/svg">
<path opacity="0.15" d="M315.544 0.5L-13.3531 250.5M345.158 0.5L129.999 250.5M374.772 0.5L242.922 250.5M404.386 0.5L341.439 250.5M434 0.5V250.5M463.614 0.5L526.561 250.5M493.228 0.5L625.078 250.5M522.842 0.5L738.001 250.5M552.456 0.5L881.353 250.5M285.928 0.501209L582.072 0.501209M285.925 0.502418L582.074 0.502418M285.918 0.506044L582.081 0.506044M285.904 0.512692L582.096 0.512692M285.876 0.526593L582.124 0.526593M285.825 0.551374L582.175 0.551374M285.736 0.594286L582.264 0.594286M285.591 0.665605L582.409 0.665605M285.36 0.778023L582.64 0.778023M285.007 0.950276L582.993 0.950276M284.479 1.20715L583.52 1.20715M283.713 1.58066L584.287 1.58066M282.622 2.11253L585.378 2.11253M281.1 2.85413L586.9 2.85413M279.014 3.87133L588.986 3.87133M276.198 5.24331L591.802 5.24331M272.453 7.0692L595.547 7.0692M267.533 9.46684L600.467 9.46684M261.148 12.5783L606.851 12.5783M252.952 16.574L615.048 16.574M242.533 21.6515L625.467 21.6515M229.411 28.0472L638.589 28.0472M213.026 36.0331L654.974 36.0331M192.727 45.9271L675.274 45.9271M167.763 58.0942L700.237 58.0942M137.275 72.954L730.724 72.954M100.28 90.9856L767.72 90.9856M55.6568 112.734L812.344 112.734M2.13913 138.819L865.861 138.819M-61.7039 169.936L929.704 169.936M-137.482 206.87L1005.48 206.87M285.93 0.5L-227 250.5L1095 250.5L582.07 0.5L285.93 0.5Z" stroke="url(#paint0_linear_1663_6776)"/>
<defs>
<linearGradient id="paint0_linear_1663_6776" x1="434" y1="19.8089" x2="434" y2="233.224" gradientUnits="userSpaceOnUse">
<stop stop-color="#3C3C06" stop-opacity="0.0627451"/>
<stop offset="0.9375" stop-color="#061020"/>
</linearGradient>
</defs>
</svg>
