<svg width="20" height="20" viewBox="0 0 20 20" fill="none" xmlns="http://www.w3.org/2000/svg">
<path d="M6.66797 1.66797V4.16797" stroke="#959595" stroke-width="1.5" stroke-miterlimit="10" stroke-linecap="round" stroke-linejoin="round"/>
<path d="M13.332 1.66797V4.16797" stroke="#959595" stroke-width="1.5" stroke-miterlimit="10" stroke-linecap="round" stroke-linejoin="round"/>
<path d="M13.3333 2.91797C16.1083 3.06797 17.5 4.1263 17.5 8.04297V13.193C17.5 16.6263 16.6667 18.343 12.5 18.343H7.5C3.33333 18.343 2.5 16.6263 2.5 13.193V8.04297C2.5 4.1263 3.89167 3.0763 6.66667 2.91797H13.3333Z" stroke="#959595" stroke-width="1.5" stroke-miterlimit="10" stroke-linecap="round" stroke-linejoin="round"/>
<path d="M17.2904 14.668H2.70703" stroke="#959595" stroke-width="1.5" stroke-miterlimit="10" stroke-linecap="round" stroke-linejoin="round"/>
<path d="M10.0013 6.875C8.9763 6.875 8.10964 7.43333 8.10964 8.51667C8.10964 9.03333 8.3513 9.425 8.71797 9.675C8.20964 9.975 7.91797 10.4583 7.91797 11.025C7.91797 12.0583 8.70964 12.7 10.0013 12.7C11.2846 12.7 12.0846 12.0583 12.0846 11.025C12.0846 10.4583 11.793 9.96667 11.2763 9.675C11.6513 9.41667 11.8846 9.03333 11.8846 8.51667C11.8846 7.43333 11.0263 6.875 10.0013 6.875ZM10.0013 9.24167C9.56797 9.24167 9.2513 8.98333 9.2513 8.575C9.2513 8.15833 9.56797 7.91667 10.0013 7.91667C10.4346 7.91667 10.7513 8.15833 10.7513 8.575C10.7513 8.98333 10.4346 9.24167 10.0013 9.24167ZM10.0013 11.6667C9.4513 11.6667 9.0513 11.3917 9.0513 10.8917C9.0513 10.3917 9.4513 10.125 10.0013 10.125C10.5513 10.125 10.9513 10.4 10.9513 10.8917C10.9513 11.3917 10.5513 11.6667 10.0013 11.6667Z" fill="#959595"/>
</svg>
