<svg width="128" height="202" viewBox="0 0 128 202" fill="none" xmlns="http://www.w3.org/2000/svg">
<path d="M145.674 10.3828V113.457L21.6387 175.002V52.5126L145.674 10.3828Z" fill="white"/>
<path fill-rule="evenodd" clip-rule="evenodd" d="M146.01 9.91577C146.161 10.0235 146.252 10.1973 146.252 10.3825V113.456C146.252 113.674 146.128 113.873 145.932 113.97L21.896 175.515C21.7175 175.604 21.5056 175.594 21.3359 175.489C21.1663 175.384 21.063 175.2 21.063 175.001V52.5124C21.063 52.2667 21.22 52.0486 21.4531 51.9693L145.491 9.83929C145.665 9.77955 145.859 9.80803 146.01 9.91577ZM22.2153 52.923V174.074L145.1 113.101V11.1844L22.2153 52.923Z" fill="#232323"/>
<path d="M235.588 125.703L145.677 113.445L21.4946 175.146L46.7297 179.252L57.0765 174.044L97.5275 181.15V187.59L122.435 191.571L235.588 125.703Z" fill="white"/>
<path fill-rule="evenodd" clip-rule="evenodd" d="M145.42 112.931C145.523 112.88 145.639 112.861 145.755 112.876L235.666 125.135C235.908 125.168 236.104 125.351 236.152 125.591C236.2 125.831 236.089 126.075 235.877 126.199L122.725 192.066C122.61 192.133 122.475 192.158 122.343 192.137L97.4362 188.156C97.1567 188.112 96.9512 187.872 96.9512 187.59V181.631L57.1648 174.641L46.9892 179.764C46.8803 179.819 46.7568 179.838 46.6366 179.818L21.4015 175.712C21.1548 175.672 20.9622 175.478 20.9249 175.232C20.8873 174.985 21.0136 174.743 21.2372 174.632L145.42 112.931ZM145.773 114.037L23.3483 174.866L46.6371 178.655L56.8163 173.531C56.9274 173.475 57.0537 173.456 57.1762 173.478L97.6275 180.585C97.9027 180.633 98.1036 180.871 98.1036 181.15V187.101L122.322 190.971L233.856 126.046L145.773 114.037Z" fill="#232323"/>
<path d="M235.588 125.754V18.7578L122.521 64.4803V191.636L235.588 125.754Z" fill="white"/>
<path fill-rule="evenodd" clip-rule="evenodd" d="M235.907 18.2815C236.066 18.3881 236.162 18.5665 236.162 18.7575V125.754C236.162 125.958 236.054 126.146 235.877 126.249L122.812 192.13C122.634 192.235 122.413 192.235 122.234 192.133C122.055 192.031 121.945 191.841 121.945 191.635V64.4801C121.945 64.2466 122.087 64.0362 122.304 63.9484L235.371 18.2257C235.547 18.1539 235.749 18.1748 235.907 18.2815ZM123.097 64.8664V190.635L235.01 125.425V19.6098L123.097 64.8664Z" fill="#232323"/>
<path fill-rule="evenodd" clip-rule="evenodd" d="M71.5782 176.959V66.8184H72.7306V176.959H71.5782Z" fill="#232323"/>
<path d="M21.8972 175.197L47.1177 179.307L57.1769 174.054L97.5589 181.085V187.527L122.779 191.637V64.6877L21.8972 52.7051V175.197Z" fill="white"/>
<path fill-rule="evenodd" clip-rule="evenodd" d="M21.5145 52.2778C21.6377 52.1687 21.8018 52.1174 21.9654 52.1369L122.847 64.1195C123.137 64.1538 123.355 64.3985 123.355 64.6891V191.638C123.355 191.807 123.281 191.967 123.152 192.076C123.023 192.185 122.853 192.232 122.686 192.205L97.4657 188.095C97.1872 188.05 96.9826 187.81 96.9826 187.529V181.569L57.2708 174.655L47.3852 179.817C47.2746 179.875 47.148 179.895 47.0245 179.875L21.8041 175.765C21.5256 175.72 21.3209 175.48 21.3209 175.199V52.7068C21.3209 52.5426 21.3915 52.3866 21.5145 52.2778ZM22.4733 53.3531V174.711L47.0208 178.712L56.9093 173.547C57.022 173.489 57.1508 173.469 57.2761 173.491L97.658 180.522C97.9338 180.57 98.1349 180.808 98.1349 181.087V187.041L122.203 190.963V65.1987L22.4733 53.3531Z" fill="#232323"/>
<path d="M75.6111 177.405L116.22 184.313V78.0346L75.6111 73.0801V177.405Z" fill="white"/>
<path fill-rule="evenodd" clip-rule="evenodd" d="M75.2291 72.65C75.3526 72.5409 75.5172 72.4902 75.6808 72.5101L116.29 77.4647C116.578 77.5 116.795 77.7444 116.795 78.0343V184.312C116.795 184.481 116.721 184.642 116.591 184.751C116.461 184.86 116.29 184.906 116.122 184.878L75.5139 177.97C75.2372 177.923 75.0348 177.684 75.0348 177.404V73.0798C75.0348 72.9154 75.1054 72.7588 75.2291 72.65ZM76.1869 73.7282V176.92L115.643 183.632V78.5421L76.1869 73.7282Z" fill="#232323"/>
<path d="M28.2737 169.298L68.6015 176.112V72.1441L28.2737 67.2324V169.298Z" fill="white"/>
<path fill-rule="evenodd" clip-rule="evenodd" d="M27.8916 66.8043C28.0151 66.6955 28.1797 66.6445 28.3435 66.6644L68.671 71.576C68.9601 71.6114 69.1774 71.8558 69.1774 72.1457V176.114C69.1774 176.283 69.1025 176.443 68.973 176.552C68.8434 176.661 68.672 176.708 68.5049 176.68L28.1771 169.865C27.9002 169.818 27.6975 169.579 27.6975 169.299V67.234C27.6975 67.0697 27.7681 66.9131 27.8916 66.8043ZM28.8496 67.8822V168.815L68.0251 175.435V72.6537L28.8496 67.8822Z" fill="#232323"/>
<path fill-rule="evenodd" clip-rule="evenodd" d="M59.921 60.8652C60.5574 60.8652 61.0733 61.3793 61.0733 62.0131L61.0731 174.136C61.0731 174.77 60.5574 175.284 59.921 175.284C59.2846 175.284 58.7689 174.77 58.7689 174.136V62.0131C58.7689 61.3793 59.2848 60.8652 59.921 60.8652Z" fill="#232323"/>
<path fill-rule="evenodd" clip-rule="evenodd" d="M43.5137 58.6953C44.1501 58.6953 44.666 59.2091 44.666 59.8432V172.287C44.666 172.921 44.1501 173.435 43.5137 173.435C42.8772 173.435 42.3616 172.921 42.3616 172.287V59.8432C42.3616 59.2091 42.8772 58.6953 43.5137 58.6953Z" fill="#232323"/>
<path fill-rule="evenodd" clip-rule="evenodd" d="M83.9851 63.5371C84.6215 63.5371 85.1374 64.0509 85.1374 64.6847V178.223C85.1374 178.857 84.6215 179.37 83.9851 179.37C83.3487 179.37 82.833 178.857 82.833 178.223V64.6847C82.833 64.0509 83.3487 63.5371 83.9851 63.5371Z" fill="#232323"/>
<path fill-rule="evenodd" clip-rule="evenodd" d="M99.2984 65.2051C99.9348 65.2051 100.451 65.7189 100.451 66.3527V180.799C100.451 181.433 99.9348 181.947 99.2984 181.947C98.662 181.947 98.1464 181.433 98.1464 180.799V66.3527C98.1464 65.7189 98.662 65.2051 99.2984 65.2051Z" fill="#232323"/>
<path d="M114.83 86.1036L122.673 87.9559V80.8766L114.83 80.6816V86.1036Z" fill="white"/>
<path fill-rule="evenodd" clip-rule="evenodd" d="M114.428 80.2705C114.539 80.1624 114.69 80.1036 114.845 80.1076L122.687 80.3023C123 80.3101 123.249 80.5646 123.249 80.876V87.9556C123.249 88.1311 123.169 88.2967 123.03 88.4055C122.892 88.5144 122.711 88.5542 122.54 88.5138L114.698 86.6615C114.438 86.6001 114.255 86.3691 114.255 86.1032V80.6813C114.255 80.5265 114.317 80.3786 114.428 80.2705ZM115.407 81.2696V85.6495L122.097 87.2296V81.4358L115.407 81.2696Z" fill="#232323"/>
<path d="M29.6987 75.1008L21.8564 74.9657V66.7109L29.6987 68.5633V75.1008Z" fill="white"/>
<path fill-rule="evenodd" clip-rule="evenodd" d="M21.4989 66.2624C21.3606 66.3713 21.2802 66.5371 21.2802 66.7126V74.9674C21.2802 75.2805 21.5319 75.5357 21.8462 75.5413L29.6885 75.6761C29.843 75.6789 29.9919 75.6196 30.1023 75.5115C30.2125 75.4037 30.2745 75.2562 30.2745 75.1025V68.565C30.2745 68.2988 30.091 68.0678 29.8314 68.0064L21.9891 66.1541C21.8178 66.1137 21.637 66.1536 21.4989 66.2624ZM29.1224 69.0187V74.5184L22.4322 74.4035V67.4386L29.1224 69.0187Z" fill="#232323"/>
<path d="M29.6985 104.405L21.8562 104.27V96.0156L29.6985 97.868V104.405Z" fill="white"/>
<path fill-rule="evenodd" clip-rule="evenodd" d="M21.4988 95.5652C21.3604 95.674 21.28 95.8399 21.28 96.0154V104.27C21.28 104.583 21.5318 104.838 21.8461 104.844L29.6884 104.979C29.8429 104.981 29.9918 104.922 30.1022 104.814C30.2124 104.706 30.2744 104.559 30.2744 104.405V97.8677C30.2744 97.6016 30.0909 97.3705 29.8313 97.3092L21.989 95.4568C21.8176 95.4164 21.6369 95.4563 21.4988 95.5652ZM29.1223 98.3212V103.821L22.4321 103.706V96.741L29.1223 98.3212Z" fill="#232323"/>
<path d="M29.6985 132.952L21.8562 132.817V124.562L29.6985 126.415V132.952Z" fill="white"/>
<path fill-rule="evenodd" clip-rule="evenodd" d="M21.4989 124.114C21.3606 124.223 21.2802 124.388 21.2802 124.564V132.819C21.2802 133.132 21.5319 133.387 21.8462 133.393L29.6885 133.527C29.843 133.53 29.9919 133.471 30.1023 133.363C30.2125 133.255 30.2745 133.108 30.2745 132.954V126.416C30.2745 126.15 30.091 125.919 29.8314 125.858L21.9891 124.006C21.8178 123.965 21.637 124.005 21.4989 124.114ZM29.1224 126.87V132.37L22.4322 132.255V125.29L29.1224 126.87Z" fill="#232323"/>
<path d="M29.6987 162.15L21.8564 162.015V153.76L29.6987 155.612V162.15Z" fill="white"/>
<path fill-rule="evenodd" clip-rule="evenodd" d="M21.4988 153.311C21.3604 153.42 21.28 153.586 21.28 153.761V162.016C21.28 162.329 21.5318 162.585 21.8461 162.59L29.6884 162.725C29.8429 162.727 29.9918 162.668 30.1022 162.56C30.2124 162.453 30.2744 162.305 30.2744 162.151V155.614C30.2744 155.348 30.0909 155.117 29.8313 155.055L21.989 153.203C21.8176 153.163 21.6369 153.202 21.4988 153.311ZM29.1223 156.067V161.567L22.4321 161.452V154.487L29.1223 156.067Z" fill="#232323"/>
<path d="M114.83 116.25L122.673 118.102V111.023L114.83 110.828V116.25Z" fill="white"/>
<path fill-rule="evenodd" clip-rule="evenodd" d="M114.428 110.417C114.539 110.309 114.69 110.25 114.845 110.254L122.687 110.449C123 110.457 123.249 110.711 123.249 111.022V118.102C123.249 118.277 123.169 118.443 123.03 118.552C122.892 118.661 122.711 118.701 122.54 118.66L114.698 116.808C114.438 116.747 114.255 116.516 114.255 116.25V110.828C114.255 110.673 114.317 110.525 114.428 110.417ZM115.407 111.416V115.796L122.097 117.376V111.582L115.407 111.416Z" fill="#232323"/>
<path d="M114.83 146.412L122.673 148.264V141.185L114.83 140.99V146.412Z" fill="white"/>
<path fill-rule="evenodd" clip-rule="evenodd" d="M114.428 140.581C114.539 140.473 114.69 140.414 114.845 140.418L122.687 140.613C123 140.621 123.249 140.875 123.249 141.187V148.266C123.249 148.441 123.169 148.607 123.03 148.716C122.892 148.825 122.711 148.865 122.54 148.824L114.698 146.972C114.438 146.911 114.255 146.68 114.255 146.414V140.992C114.255 140.837 114.317 140.689 114.428 140.581ZM115.407 141.58V145.96L122.097 147.54V141.746L115.407 141.58Z" fill="#232323"/>
<path d="M114.83 176.559L122.673 178.219V171.332L114.83 171.137V176.559Z" fill="white"/>
<path fill-rule="evenodd" clip-rule="evenodd" d="M114.428 170.726C114.539 170.617 114.69 170.559 114.845 170.563L122.687 170.757C123 170.765 123.249 171.02 123.249 171.331V178.219C123.249 178.392 123.171 178.556 123.035 178.665C122.9 178.773 122.723 178.816 122.553 178.78L114.711 177.12C114.445 177.063 114.255 176.829 114.255 176.558V171.136C114.255 170.982 114.317 170.834 114.428 170.726ZM115.407 171.725V176.094L122.097 177.51V171.891L115.407 171.725Z" fill="#232323"/>
<path fill-rule="evenodd" clip-rule="evenodd" d="M122.443 72.9727L21.5778 61.1085L21.7129 59.9688L122.578 71.833L122.443 72.9727Z" fill="#232323"/>
<path fill-rule="evenodd" clip-rule="evenodd" d="M122.427 185.942L21.5717 168.717L21.7665 167.586L122.621 184.811L122.427 185.942Z" fill="#232323"/>
<path d="M21.5635 174.973L47.124 179.372V172.522L21.5632 168.25L21.5635 174.973Z" fill="white"/>
<path fill-rule="evenodd" clip-rule="evenodd" d="M21.1915 167.812C21.321 167.703 21.4919 167.656 21.659 167.684L47.2197 171.955C47.4972 172.002 47.7003 172.241 47.7003 172.521V179.371C47.7003 179.541 47.6252 179.701 47.4954 179.81C47.3654 179.919 47.1937 179.966 47.0261 179.937L21.4657 175.537C21.1894 175.49 20.9878 175.251 20.9878 174.972L20.9875 168.25C20.9875 168.081 21.0622 167.921 21.1915 167.812ZM22.1399 168.928V174.489L46.5483 178.69V173.007L22.1399 168.928Z" fill="#232323"/>
<path d="M145.702 10.3652L235.588 18.7678L122.521 64.4901L21.6387 52.5075L145.702 10.3652Z" fill="white"/>
<path fill-rule="evenodd" clip-rule="evenodd" d="M145.516 9.82173C145.594 9.79557 145.675 9.78595 145.755 9.79353L235.641 18.196C235.905 18.2208 236.119 18.4222 236.157 18.6839C236.195 18.9456 236.051 19.1996 235.804 19.2991L122.739 65.0213C122.648 65.0579 122.55 65.0711 122.454 65.0595L21.5715 53.0771C21.3043 53.0453 21.0949 52.8339 21.0666 52.5673C21.0387 52.3009 21.1992 52.0507 21.4538 51.9641L145.516 9.82173ZM145.77 10.9477L24.2227 52.236L122.443 63.9023L233.186 19.1193L145.77 10.9477Z" fill="#232323"/>
</svg>
