<svg width="18" height="18" viewBox="0 0 18 18" fill="none" xmlns="http://www.w3.org/2000/svg">
<g clip-path="url(#clip0_1449_3684)">
<path fill-rule="evenodd" clip-rule="evenodd" d="M9.86402 0.511469C10.1222 0.3607 10.4159 0.28125 10.7149 0.28125C11.0139 0.28125 11.3075 0.3607 11.5658 0.511469L11.571 0.514469L16.7888 3.72147C17.0458 3.87197 17.259 4.08711 17.4071 4.34552C17.5553 4.60393 17.6333 4.8966 17.6333 5.19447V10.8315C17.6333 11.439 17.3093 12.0015 16.7835 12.3075L16.782 12.3082L7.80902 17.586L7.80602 17.5882C7.54581 17.7392 7.25033 17.8186 6.94952 17.8186C6.6487 17.8186 6.35323 17.7392 6.09302 17.5882L6.07352 17.577L1.19627 14.2005C0.945299 14.049 0.737738 13.8352 0.593716 13.5799C0.449695 13.3246 0.374101 13.0364 0.374268 12.7432V7.07847C0.374268 6.78447 0.449268 6.50097 0.587268 6.25347L0.589518 6.24897L0.600018 6.22947C0.747867 5.97296 0.959781 5.75924 1.21502 5.60922H1.21652L9.86402 0.511469ZM10.4318 1.48272H10.431L1.98602 6.46197L6.67202 9.64722C6.75951 9.69469 6.85771 9.71892 6.95724 9.71761C7.05678 9.7163 7.15431 9.68948 7.24052 9.63972L15.966 4.53672L10.9943 1.48122C10.9086 1.43219 10.8115 1.40659 10.7127 1.40698C10.614 1.40738 10.5171 1.43376 10.4318 1.48347V1.48272ZM13.5 7.28172L11.0625 8.70672V11.5372V14.3677L13.5 12.9337V7.28172ZM14.625 6.62322V9.44772V12.2722L16.218 11.3347C16.3062 11.2835 16.3794 11.2101 16.4303 11.1218C16.4813 11.0335 16.5081 10.9334 16.5083 10.8315V5.52222L14.625 6.62322ZM7.80752 10.6102L9.93752 9.36522V15.0292L7.51277 16.4557V10.7467C7.61327 10.7115 7.71152 10.6665 7.80602 10.6117L7.80752 10.6102ZM6.38777 16.4257V10.7475C6.28546 10.7119 6.18676 10.6667 6.09302 10.6125L6.07577 10.602L1.49927 7.49172V12.744C1.49927 12.9502 1.60802 13.14 1.78352 13.242L1.80227 13.2525L6.38777 16.4265V16.4257Z" fill="white"/>
</g>
<defs>
<clipPath id="clip0_1449_3684">
<rect width="18" height="18" fill="white"/>
</clipPath>
</defs>
</svg>
