<svg width="20" height="20" viewBox="0 0 20 20" fill="none" xmlns="http://www.w3.org/2000/svg">
<g clip-path="url(#clip0_1663_6214)">
<path d="M6.87535 1.08241C6.80231 1.00063 6.71222 0.935867 6.61143 0.892673C6.51065 0.849479 6.40162 0.82891 6.29202 0.832415C6.07221 0.835545 5.86255 0.925403 5.70869 1.08241C5.62786 1.15657 5.56333 1.24672 5.51918 1.34714C5.47503 1.44756 5.45224 1.55605 5.45224 1.66575C5.45224 1.77544 5.47503 1.88394 5.51918 1.98436C5.56333 2.08477 5.62786 2.17492 5.70869 2.24908L8.08369 4.58241L2.58369 10.0407C2.42744 10.1922 2.30322 10.3736 2.21839 10.574C2.13356 10.7744 2.08984 10.9898 2.08984 11.2074C2.08984 11.425 2.13356 11.6404 2.21839 11.8409C2.30322 12.0413 2.42744 12.2226 2.58369 12.3741L8.08369 17.8324C8.23314 17.9917 8.41395 18.1184 8.61473 18.2044C8.81551 18.2905 9.03192 18.3341 9.25035 18.3324C9.46842 18.3316 9.68409 18.2869 9.88453 18.201C10.085 18.1151 10.2661 17.9898 10.417 17.8324L17.0837 11.2074L6.87535 1.08241ZM3.79202 11.2074L9.25035 5.79075L14.667 11.2074H3.79202Z" fill="#5B6B91"/>
<path d="M17.0837 13.332C17.0837 13.332 15.417 15.7487 15.417 16.6654C15.417 17.1074 15.5926 17.5313 15.9051 17.8439C16.2177 18.1564 16.6416 18.332 17.0837 18.332C17.5257 18.332 17.9496 18.1564 18.2622 17.8439C18.5747 17.5313 18.7503 17.1074 18.7503 16.6654C18.7503 15.7487 17.0837 13.332 17.0837 13.332Z" fill="#5B6B91"/>
</g>
<defs>
<clipPath id="clip0_1663_6214">
<rect width="20" height="20" fill="white"/>
</clipPath>
</defs>
</svg>
