<svg width="714" height="6" viewBox="0 0 714 6" fill="none" xmlns="http://www.w3.org/2000/svg">
<path d="M0.000325441 2.66602C0.000325313 4.13877 1.19423 5.33268 2.66699 5.33268C4.13975 5.33268 5.33366 4.13878 5.33366 2.66602C5.33366 1.19326 4.13975 -0.000650992 2.66699 -0.000651121C1.19423 -0.00065125 0.00032557 1.19326 0.000325441 2.66602ZM708 2.66608C708 4.13884 709.194 5.33274 710.667 5.33274C712.14 5.33274 713.334 4.13884 713.334 2.66608C713.334 1.19332 712.14 -0.000589097 710.667 -0.000589226C709.194 -0.000589355 708 1.19332 708 2.66608ZM2.66699 2.66602L2.66699 3.16602L4.65576 3.16602L4.65576 2.66602L4.65576 2.16602L2.66699 2.16602L2.66699 2.66602ZM8.63329 2.66602L8.63329 3.16602L12.6108 3.16602L12.6108 2.66602L12.6108 2.16602L8.63329 2.16602L8.63329 2.66602ZM16.5883 2.66602L16.5883 3.16602L20.5659 3.16602L20.5659 2.66602L20.5659 2.16602L16.5883 2.16602L16.5883 2.66602ZM24.5434 2.66602L24.5434 3.16602L28.5209 3.16602L28.5209 2.66602L28.5209 2.16602L24.5434 2.16602L24.5434 2.66602ZM32.4985 2.66602L32.4985 3.16602L36.476 3.16602L36.476 2.66602L36.476 2.16602L32.4985 2.16602L32.4985 2.66602ZM40.4535 2.66602L40.4535 3.16602L44.431 3.16602L44.431 2.66602L44.431 2.16602L40.4535 2.16602L40.4535 2.66602ZM48.4086 2.66602L48.4086 3.16602L52.3861 3.16602L52.3861 2.66602L52.3861 2.16602L48.4086 2.16602L48.4086 2.66602ZM56.3636 2.66602L56.3636 3.16602L60.3411 3.16602L60.3411 2.66602L60.3411 2.16602L56.3636 2.16602L56.3636 2.66602ZM64.3187 2.66602L64.3187 3.16602L68.2962 3.16602L68.2962 2.66602L68.2962 2.16602L64.3187 2.16602L64.3187 2.66602ZM72.2737 2.66602L72.2737 3.16602L76.2513 3.16602L76.2513 2.66602L76.2513 2.16602L72.2737 2.16602L72.2737 2.66602ZM80.2288 2.66602L80.2288 3.16602L84.2063 3.16602L84.2063 2.66602L84.2063 2.16602L80.2288 2.16602L80.2288 2.66602ZM88.1839 2.66602L88.1839 3.16602L92.1614 3.16602L92.1614 2.66602L92.1614 2.16602L88.1839 2.16602L88.1839 2.66602ZM96.1389 2.66602L96.1389 3.16602L100.116 3.16602L100.116 2.66602L100.116 2.16602L96.1389 2.16602L96.1389 2.66602ZM104.094 2.66602L104.094 3.16602L108.072 3.16602L108.072 2.66602L108.072 2.16602L104.094 2.16602L104.094 2.66602ZM112.049 2.66603L112.049 3.16603L116.027 3.16603L116.027 2.66603L116.027 2.16603L112.049 2.16603L112.049 2.66603ZM120.004 2.66603L120.004 3.16603L123.982 3.16603L123.982 2.66603L123.982 2.16603L120.004 2.16603L120.004 2.66603ZM127.959 2.66603L127.959 3.16603L131.937 3.16603L131.937 2.66603L131.937 2.16603L127.959 2.16603L127.959 2.66603ZM135.914 2.66603L135.914 3.16603L139.892 3.16603L139.892 2.66603L139.892 2.16603L135.914 2.16603L135.914 2.66603ZM143.869 2.66603L143.869 3.16603L147.847 3.16603L147.847 2.66603L147.847 2.16603L143.869 2.16603L143.869 2.66603ZM151.824 2.66603L151.824 3.16603L155.802 3.16603L155.802 2.66603L155.802 2.16603L151.824 2.16603L151.824 2.66603ZM159.779 2.66603L159.779 3.16603L163.757 3.16603L163.757 2.66603L163.757 2.16603L159.779 2.16603L159.779 2.66603ZM167.734 2.66603L167.734 3.16603L171.712 3.16603L171.712 2.66603L171.712 2.16603L167.734 2.16603L167.734 2.66603ZM175.689 2.66603L175.689 3.16603L179.667 3.16603L179.667 2.66603L179.667 2.16603L175.689 2.16603L175.689 2.66603ZM183.645 2.66603L183.645 3.16603L187.622 3.16603L187.622 2.66603L187.622 2.16603L183.645 2.16603L183.645 2.66603ZM191.6 2.66603L191.6 3.16603L195.577 3.16603L195.577 2.66603L195.577 2.16603L191.6 2.16603L191.6 2.66603ZM199.555 2.66603L199.555 3.16603L203.532 3.16603L203.532 2.66603L203.532 2.16603L199.555 2.16603L199.555 2.66603ZM207.51 2.66603L207.51 3.16603L211.487 3.16603L211.487 2.66603L211.487 2.16603L207.51 2.16603L207.51 2.66603ZM215.465 2.66603L215.465 3.16603L219.442 3.16603L219.442 2.66603L219.442 2.16603L215.465 2.16603L215.465 2.66603ZM223.42 2.66603L223.42 3.16603L227.397 3.16604L227.397 2.66604L227.397 2.16604L223.42 2.16603L223.42 2.66603ZM231.375 2.66604L231.375 3.16604L235.352 3.16604L235.352 2.66604L235.352 2.16604L231.375 2.16604L231.375 2.66604ZM239.33 2.66604L239.33 3.16604L243.307 3.16604L243.307 2.66604L243.307 2.16604L239.33 2.16604L239.33 2.66604ZM247.285 2.66604L247.285 3.16604L251.262 3.16604L251.262 2.66604L251.262 2.16604L247.285 2.16604L247.285 2.66604ZM255.24 2.66604L255.24 3.16604L259.217 3.16604L259.217 2.66604L259.217 2.16604L255.24 2.16604L255.24 2.66604ZM263.195 2.66604L263.195 3.16604L267.173 3.16604L267.173 2.66604L267.173 2.16604L263.195 2.16604L263.195 2.66604ZM271.15 2.66604L271.15 3.16604L275.128 3.16604L275.128 2.66604L275.128 2.16604L271.15 2.16604L271.15 2.66604ZM279.105 2.66604L279.105 3.16604L283.083 3.16604L283.083 2.66604L283.083 2.16604L279.105 2.16604L279.105 2.66604ZM287.06 2.66604L287.06 3.16604L291.038 3.16604L291.038 2.66604L291.038 2.16604L287.06 2.16604L287.06 2.66604ZM295.015 2.66604L295.015 3.16604L298.993 3.16604L298.993 2.66604L298.993 2.16604L295.015 2.16604L295.015 2.66604ZM302.97 2.66604L302.97 3.16604L306.948 3.16604L306.948 2.66604L306.948 2.16604L302.97 2.16604L302.97 2.66604ZM310.925 2.66604L310.925 3.16604L314.903 3.16604L314.903 2.66604L314.903 2.16604L310.925 2.16604L310.925 2.66604ZM318.881 2.66604L318.881 3.16604L322.858 3.16604L322.858 2.66604L322.858 2.16604L318.881 2.16604L318.881 2.66604ZM326.836 2.66604L326.836 3.16604L330.813 3.16604L330.813 2.66604L330.813 2.16604L326.836 2.16604L326.836 2.66604ZM334.791 2.66604L334.791 3.16604L338.768 3.16605L338.768 2.66605L338.768 2.16605L334.791 2.16604L334.791 2.66604ZM342.746 2.66605L342.746 3.16605L346.723 3.16605L346.723 2.66605L346.723 2.16605L342.746 2.16605L342.746 2.66605ZM350.701 2.66605L350.701 3.16605L354.678 3.16605L354.678 2.66605L354.678 2.16605L350.701 2.16605L350.701 2.66605ZM358.656 2.66605L358.656 3.16605L362.633 3.16605L362.633 2.66605L362.633 2.16605L358.656 2.16605L358.656 2.66605ZM366.611 2.66605L366.611 3.16605L370.589 3.16605L370.589 2.66605L370.589 2.16605L366.611 2.16605L366.611 2.66605ZM374.566 2.66605L374.566 3.16605L378.544 3.16605L378.544 2.66605L378.544 2.16605L374.566 2.16605L374.566 2.66605ZM382.521 2.66605L382.521 3.16605L386.499 3.16605L386.499 2.66605L386.499 2.16605L382.521 2.16605L382.521 2.66605ZM390.476 2.66605L390.476 3.16605L394.454 3.16605L394.454 2.66605L394.454 2.16605L390.476 2.16605L390.476 2.66605ZM398.431 2.66605L398.431 3.16605L402.409 3.16605L402.409 2.66605L402.409 2.16605L398.431 2.16605L398.431 2.66605ZM406.386 2.66605L406.386 3.16605L410.364 3.16605L410.364 2.66605L410.364 2.16605L406.386 2.16605L406.386 2.66605ZM414.341 2.66605L414.341 3.16605L418.319 3.16605L418.319 2.66605L418.319 2.16605L414.341 2.16605L414.341 2.66605ZM422.297 2.66605L422.297 3.16605L426.274 3.16605L426.274 2.66605L426.274 2.16605L422.297 2.16605L422.297 2.66605ZM430.252 2.66605L430.252 3.16605L434.229 3.16605L434.229 2.66605L434.229 2.16605L430.252 2.16605L430.252 2.66605ZM438.207 2.66605L438.207 3.16605L442.184 3.16605L442.184 2.66605L442.184 2.16605L438.207 2.16605L438.207 2.66605ZM446.162 2.66605L446.162 3.16605L450.139 3.16605L450.139 2.66605L450.139 2.16605L446.162 2.16605L446.162 2.66605ZM454.117 2.66606L454.117 3.16606L458.094 3.16606L458.094 2.66606L458.094 2.16606L454.117 2.16606L454.117 2.66606ZM462.072 2.66606L462.072 3.16606L466.049 3.16606L466.049 2.66606L466.049 2.16606L462.072 2.16606L462.072 2.66606ZM470.027 2.66606L470.027 3.16606L474.005 3.16606L474.005 2.66606L474.005 2.16606L470.027 2.16606L470.027 2.66606ZM477.982 2.66606L477.982 3.16606L481.96 3.16606L481.96 2.66606L481.96 2.16606L477.982 2.16606L477.982 2.66606ZM485.937 2.66606L485.937 3.16606L489.915 3.16606L489.915 2.66606L489.915 2.16606L485.937 2.16606L485.937 2.66606ZM493.892 2.66606L493.892 3.16606L497.87 3.16606L497.87 2.66606L497.87 2.16606L493.892 2.16606L493.892 2.66606ZM501.847 2.66606L501.847 3.16606L505.825 3.16606L505.825 2.66606L505.825 2.16606L501.847 2.16606L501.847 2.66606ZM509.802 2.66606L509.802 3.16606L513.78 3.16606L513.78 2.66606L513.78 2.16606L509.802 2.16606L509.802 2.66606ZM517.758 2.66606L517.758 3.16606L521.735 3.16606L521.735 2.66606L521.735 2.16606L517.758 2.16606L517.758 2.66606ZM525.713 2.66606L525.713 3.16606L529.69 3.16606L529.69 2.66606L529.69 2.16606L525.713 2.16606L525.713 2.66606ZM533.668 2.66606L533.668 3.16606L537.645 3.16606L537.645 2.66606L537.645 2.16606L533.668 2.16606L533.668 2.66606ZM541.623 2.66606L541.623 3.16606L545.6 3.16606L545.6 2.66606L545.6 2.16606L541.623 2.16606L541.623 2.66606ZM549.578 2.66606L549.578 3.16606L553.555 3.16606L553.555 2.66606L553.555 2.16606L549.578 2.16606L549.578 2.66606ZM557.533 2.66606L557.533 3.16606L561.51 3.16606L561.51 2.66606L561.51 2.16606L557.533 2.16606L557.533 2.66606ZM565.488 2.66606L565.488 3.16606L569.466 3.16607L569.466 2.66607L569.466 2.16607L565.488 2.16606L565.488 2.66606ZM573.443 2.66607L573.443 3.16607L577.421 3.16607L577.421 2.66607L577.421 2.16607L573.443 2.16607L573.443 2.66607ZM581.398 2.66607L581.398 3.16607L585.376 3.16607L585.376 2.66607L585.376 2.16607L581.398 2.16607L581.398 2.66607ZM589.353 2.66607L589.353 3.16607L593.331 3.16607L593.331 2.66607L593.331 2.16607L589.353 2.16607L589.353 2.66607ZM597.308 2.66607L597.308 3.16607L601.286 3.16607L601.286 2.66607L601.286 2.16607L597.308 2.16607L597.308 2.66607ZM605.263 2.66607L605.263 3.16607L609.241 3.16607L609.241 2.66607L609.241 2.16607L605.263 2.16607L605.263 2.66607ZM613.218 2.66607L613.218 3.16607L617.196 3.16607L617.196 2.66607L617.196 2.16607L613.218 2.16607L613.218 2.66607ZM621.174 2.66607L621.174 3.16607L625.151 3.16607L625.151 2.66607L625.151 2.16607L621.174 2.16607L621.174 2.66607ZM629.129 2.66607L629.129 3.16607L633.106 3.16607L633.106 2.66607L633.106 2.16607L629.129 2.16607L629.129 2.66607ZM637.084 2.66607L637.084 3.16607L641.061 3.16607L641.061 2.66607L641.061 2.16607L637.084 2.16607L637.084 2.66607ZM645.039 2.66607L645.039 3.16607L649.016 3.16607L649.016 2.66607L649.016 2.16607L645.039 2.16607L645.039 2.66607ZM652.994 2.66607L652.994 3.16607L656.971 3.16607L656.971 2.66607L656.971 2.16607L652.994 2.16607L652.994 2.66607ZM660.949 2.66607L660.949 3.16607L664.926 3.16607L664.926 2.66607L664.926 2.16607L660.949 2.16607L660.949 2.66607ZM668.904 2.66607L668.904 3.16607L672.882 3.16607L672.882 2.66607L672.882 2.16607L668.904 2.16607L668.904 2.66607ZM676.859 2.66607L676.859 3.16607L680.837 3.16607L680.837 2.66607L680.837 2.16607L676.859 2.16607L676.859 2.66607ZM684.814 2.66608L684.814 3.16608L688.792 3.16608L688.792 2.66608L688.792 2.16608L684.814 2.16608L684.814 2.66608ZM692.769 2.66608L692.769 3.16608L696.747 3.16608L696.747 2.66608L696.747 2.16608L692.769 2.16608L692.769 2.66608ZM700.724 2.66608L700.724 3.16608L704.702 3.16608L704.702 2.66608L704.702 2.16608L700.724 2.16608L700.724 2.66608ZM708.679 2.66608L708.679 3.16608L710.667 3.16608L710.667 2.66608L710.667 2.16608L708.679 2.16608L708.679 2.66608Z" fill="#D9D9D9"/>
</svg>
