<svg width="300" height="300" viewBox="0 0 300 300" fill="none" xmlns="http://www.w3.org/2000/svg">
<path d="M144.597 263C207.978 263 259.359 212.184 259.359 149.5C259.359 86.8157 207.978 36 144.597 36C81.2156 36 29.835 86.8157 29.835 149.5C29.835 212.184 81.2156 263 144.597 263Z" fill="#F0F2F6"/>
<path fill-rule="evenodd" clip-rule="evenodd" d="M243.613 221.852C244.658 221.483 245.759 220.993 246.608 220.284C247.616 219.442 248.025 218.357 248.301 217.215C248.654 215.748 248.795 214.185 249.224 212.716C249.383 212.17 249.688 211.964 249.819 211.872C250.15 211.641 250.485 211.579 250.8 211.602C251.173 211.629 251.686 211.769 252.023 212.388C252.071 212.476 252.134 212.611 252.176 212.796C252.206 212.931 252.226 213.355 252.259 213.53C252.34 213.96 252.408 214.391 252.471 214.824C252.684 216.264 252.806 217.487 253.476 218.81C254.385 220.607 255.296 221.706 256.532 222.193C257.727 222.664 259.156 222.575 260.981 222.206C261.155 222.164 261.327 222.129 261.497 222.099C262.301 221.96 263.071 222.483 263.229 223.276C263.387 224.068 262.875 224.84 262.078 225.015C261.911 225.051 261.747 225.085 261.585 225.117C259.118 225.721 256.263 227.876 254.603 229.764C254.092 230.345 253.343 231.972 252.579 233.01C252.015 233.776 251.382 234.281 250.85 234.459C250.493 234.579 250.193 234.561 249.945 234.5C249.584 234.412 249.285 234.219 249.055 233.911C248.93 233.743 248.814 233.518 248.759 233.23C248.732 233.092 248.729 232.74 248.73 232.581C248.574 232.051 248.384 231.534 248.245 230.999C247.914 229.724 247.264 228.917 246.492 227.851C245.77 226.853 244.995 226.225 243.858 225.725C243.711 225.689 242.517 225.4 242.096 225.234C241.481 224.991 241.187 224.584 241.081 224.365C240.9 223.993 240.881 223.668 240.917 223.397C240.971 222.996 241.153 222.654 241.475 222.378C241.674 222.206 241.972 222.039 242.371 221.957C242.68 221.894 243.498 221.857 243.613 221.852ZM250.612 219.773C250.667 219.895 250.726 220.018 250.788 220.141C252.12 222.772 253.61 224.241 255.42 224.954L255.481 224.977C254.27 225.866 253.173 226.86 252.335 227.813C251.99 228.205 251.534 229.02 251.04 229.856C250.592 228.415 249.859 227.396 248.937 226.121C248.232 225.148 247.494 224.415 246.587 223.819C247.291 223.461 247.962 223.043 248.547 222.554C249.521 221.74 250.165 220.798 250.612 219.773Z" fill="#B5D7FF"/>
<ellipse cx="14.4352" cy="127.383" rx="5.43521" ry="5.37545" fill="#B5D7FF"/>
<path d="M54.4268 65.6932C53.6944 65.2253 52.7143 65.4354 52.2441 66.1688H52.2451C51.7698 66.9029 51.9869 67.878 52.7197 68.3466H52.7207C56.8725 70.9964 59.577 74.6566 60.9541 79.3505L60.9531 79.3514C61.1953 80.191 62.0769 80.6665 62.9131 80.4247H62.9141C63.7462 80.1826 64.2377 79.3087 63.9893 78.4686C62.3941 73.0305 59.2407 68.7672 54.4268 65.6932Z" fill="#81B7F6" stroke="#81B7F6"/>
<path d="M131.247 63.1473C122.716 59.2734 113.08 62.3651 108.345 70.2469C107.648 69.6208 106.912 69.0365 106.147 68.4969L105.731 68.2108C96.9197 62.3386 84.279 64.4913 74.6367 73.495H74.6357C73.0545 74.9724 71.8242 77.1285 70.873 79.6698C69.92 82.2164 69.2351 85.1839 68.7646 88.3173C67.8631 94.3183 67.697 100.975 67.7451 106.351C66.7286 103.982 65.5903 101.676 64.3809 99.3768C58.2152 87.6615 52.1501 75.1846 41.9307 66.162L41.9287 66.161C41.2753 65.5885 40.2789 65.6429 39.7002 66.2938L39.5977 66.4198C39.157 67.0261 39.211 67.8608 39.7168 68.4081L39.832 68.5204C49.6839 77.2207 55.5018 89.2912 61.5791 100.841C63.4807 104.454 65.1856 108.058 66.502 111.896V111.897C66.9019 113.055 67.304 114.182 67.6367 115.337C67.6357 115.333 67.6374 115.343 67.6387 115.375C67.64 115.406 67.639 115.447 67.6357 115.502C67.6324 115.557 67.6277 115.614 67.6221 115.683L67.6084 115.901V115.906C67.5995 116.284 67.6149 116.687 67.6982 117.006L67.6992 117.01C67.8564 117.592 68.2061 117.997 68.6465 118.227L68.6484 118.228L68.8779 117.784L68.6494 118.228C68.9722 118.395 69.3727 118.486 69.8525 118.401L69.8574 118.4C70.1978 118.336 70.7455 118.144 71.0391 117.451L71.0381 117.45C71.073 117.368 71.0944 117.271 71.1074 117.199C71.1235 117.11 71.1383 116.999 71.1504 116.87C71.1746 116.611 71.189 116.262 71.1777 115.833V115.832C71.0849 112.579 70.4392 101.838 71.4912 91.9452L71.5977 90.9911C71.983 87.7332 72.5447 84.614 73.3867 81.9598C74.2313 79.2977 75.3428 77.1531 76.7979 75.7938C85.53 67.6403 96.7517 65.7336 104.321 71.0692C105.276 71.7421 106.171 72.4927 106.994 73.3153C106.851 74.0558 106.765 74.988 106.778 75.9364C106.791 76.8677 106.898 77.8467 107.157 78.6903L107.278 79.0428C107.62 79.9431 108.167 80.6794 108.909 81.1014L109.06 81.1815C109.918 81.6068 110.993 81.6486 112.254 81.0126C113.338 80.4644 113.729 79.4157 113.63 78.2948C113.543 77.27 112.997 76.1266 112.701 75.6073C112.1 74.5494 111.402 73.5526 110.631 72.621C114.371 65.5692 122.632 62.6999 129.934 66.0155H129.935C130.729 66.3748 131.664 66.027 132.03 65.2382L132.031 65.2352C132.393 64.4436 132.044 63.5082 131.247 63.1473ZM110.082 77.4091C110.213 77.6683 110.358 78.0053 110.437 78.33C110.424 78.3164 110.407 78.2974 110.389 78.2675C110.341 78.1893 110.295 78.0827 110.237 77.9296V77.9286C110.176 77.7686 110.125 77.5939 110.082 77.4091Z" fill="#81B7F6" stroke="#81B7F6"/>
<rect x="91.6318" y="94.887" width="197.556" height="70.4335" rx="24" fill="#D2DBE6"/>
<rect x="173.182" y="119.135" width="66.6179" height="9.23718" rx="4.61859" fill="white"/>
<rect x="108.861" y="132.99" width="131.274" height="9.23718" rx="4.61859" fill="white"/>
<ellipse cx="263.92" cy="130.681" rx="11.4858" ry="11.5465" fill="white"/>
<rect x="9" y="153.774" width="197.556" height="70.4335" rx="24" fill="#B3D6FF"/>
<rect x="58.3887" y="178.022" width="66.6179" height="9.23718" rx="4.61859" fill="white"/>
<rect x="58.3887" y="191.877" width="131.274" height="9.23719" rx="4.61859" fill="white"/>
<ellipse cx="37.7144" cy="189.568" rx="11.4858" ry="11.5465" fill="white"/>
</svg>
