<svg width="12" height="12" viewBox="0 0 12 12" fill="none" xmlns="http://www.w3.org/2000/svg">
<path d="M8.98567 10.1999H3.01444C2.70821 10.2131 2.40398 10.1446 2.13296 10.0014C1.86194 9.85822 1.6339 9.64553 1.4722 9.38518C1.3105 9.12478 1.22096 8.82603 1.21277 8.51964C1.20459 8.21321 1.27807 7.91019 1.42564 7.64153L4.41123 2.45273C4.57675 2.17951 4.80994 1.95359 5.08826 1.7968C5.36656 1.64 5.68058 1.55762 6.00002 1.55762C6.31946 1.55762 6.63352 1.64 6.91183 1.7968C7.19013 1.95359 7.42336 2.17951 7.58887 2.45273L10.5745 7.64153C10.722 7.91019 10.7955 8.21321 10.7873 8.51964C10.7791 8.82603 10.6896 9.12478 10.5279 9.38518C10.3662 9.64553 10.1381 9.85822 9.86709 10.0014C9.59608 10.1446 9.29186 10.2131 8.98567 10.1999Z" stroke="#FB2948" stroke-linecap="round" stroke-linejoin="round"/>
<path d="M5.46289 8.23195C5.46289 8.16096 5.47695 8.09064 5.50427 8.02512C5.53158 7.95955 5.57161 7.90008 5.62206 7.85011C5.67246 7.80014 5.73231 7.76064 5.79807 7.7339C5.86388 7.70717 5.93425 7.69373 6.00529 7.69435C6.11003 7.69627 6.21188 7.72896 6.29814 7.78843C6.38435 7.8479 6.45116 7.93152 6.49019 8.02872C6.52916 8.12597 6.53862 8.23253 6.5174 8.3351C6.49614 8.43768 6.44511 8.53171 6.37071 8.60549C6.29631 8.67922 6.2018 8.72938 6.09903 8.74973C5.99627 8.77008 5.8898 8.75966 5.79294 8.71978C5.69603 8.67994 5.61308 8.6124 5.55438 8.52562C5.49567 8.43888 5.46385 8.33674 5.46289 8.23195ZM5.63569 6.92155L5.56849 4.41596C5.56211 4.35573 5.56844 4.29483 5.58716 4.23722C5.60583 4.1796 5.63641 4.12656 5.67692 4.08154C5.71743 4.03651 5.76697 4.00051 5.82227 3.97586C5.87761 3.95122 5.93751 3.93848 5.99809 3.93848C6.05867 3.93848 6.11857 3.95122 6.17387 3.97586C6.22921 4.00051 6.2787 4.03651 6.31921 4.08154C6.35972 4.12656 6.39035 4.1796 6.40902 4.23722C6.42769 4.29483 6.43407 4.35573 6.42769 4.41596L6.36529 6.92155C6.36529 7.01827 6.32684 7.1111 6.25844 7.1795C6.18999 7.2479 6.09721 7.28635 6.00049 7.28635C5.90372 7.28635 5.81094 7.2479 5.74254 7.1795C5.67414 7.1111 5.63569 7.01827 5.63569 6.92155Z" fill="#FB2948"/>
</svg>
