<svg width="24" height="24" viewBox="0 0 24 24" fill="none" xmlns="http://www.w3.org/2000/svg">
<g clip-path="url(#clip0_553_1918)">
<mask id="mask0_553_1918" style="mask-type:luminance" maskUnits="userSpaceOnUse" x="0" y="0" width="24" height="24">
<path d="M12 24C18.6274 24 24 18.6274 24 12C24 5.37258 18.6274 0 12 0C5.37258 0 0 5.37258 0 12C0 18.6274 5.37258 24 12 24Z" fill="white"/>
</mask>
<g mask="url(#mask0_553_1918)">
<path d="M-6.03589 0H30.0361V24.048H-6.03589V0Z" fill="#F89939"/>
</g>
<mask id="mask1_553_1918" style="mask-type:luminance" maskUnits="userSpaceOnUse" x="0" y="0" width="24" height="24">
<path d="M12 24C18.6274 24 24 18.6274 24 12C24 5.37258 18.6274 0 12 0C5.37258 0 0 5.37258 0 12C0 18.6274 5.37258 24 12 24Z" fill="white"/>
</mask>
<g mask="url(#mask1_553_1918)">
<path d="M-6.03589 8.01611H30.0361V16.0321H-6.03589V8.01611Z" fill="white"/>
</g>
<mask id="mask2_553_1918" style="mask-type:luminance" maskUnits="userSpaceOnUse" x="0" y="0" width="24" height="24">
<path d="M12 24C18.6274 24 24 18.6274 24 12C24 5.37258 18.6274 0 12 0C5.37258 0 0 5.37258 0 12C0 18.6274 5.37258 24 12 24Z" fill="white"/>
</mask>
<g mask="url(#mask2_553_1918)">
<path d="M-6.03589 16.0322H30.0361V24.0482H-6.03589V16.0322Z" fill="#1E8943"/>
</g>
<mask id="mask3_553_1918" style="mask-type:luminance" maskUnits="userSpaceOnUse" x="0" y="0" width="24" height="24">
<path d="M12 24C18.6274 24 24 18.6274 24 12C24 5.37258 18.6274 0 12 0C5.37258 0 0 5.37258 0 12C0 18.6274 5.37258 24 12 24Z" fill="white"/>
</mask>
<g mask="url(#mask3_553_1918)">
<path d="M12.0001 15.2302C13.7709 15.2302 15.2065 13.7946 15.2065 12.0238C15.2065 10.2529 13.7709 8.81738 12.0001 8.81738C10.2293 8.81738 8.7937 10.2529 8.7937 12.0238C8.7937 13.7946 10.2293 15.2302 12.0001 15.2302Z" fill="#2A2C7A"/>
</g>
<mask id="mask4_553_1918" style="mask-type:luminance" maskUnits="userSpaceOnUse" x="0" y="0" width="24" height="24">
<path d="M12 24C18.6274 24 24 18.6274 24 12C24 5.37258 18.6274 0 12 0C5.37258 0 0 5.37258 0 12C0 18.6274 5.37258 24 12 24Z" fill="white"/>
</mask>
<g mask="url(#mask4_553_1918)">
<path d="M14.1373 10.2075C14.0882 10.1498 14.0373 10.0936 13.9837 10.04L12.8615 11.2983L12.416 11.6484C12.4359 11.6704 12.4543 11.6939 12.4705 11.719L12.9238 11.3795L14.4293 10.6212C14.3913 10.5555 14.3509 10.4914 14.3078 10.4292C14.2465 10.4737 14.1608 10.4618 14.1144 10.4014C14.0682 10.3411 14.0788 10.2553 14.1373 10.2075Z" fill="white"/>
<path d="M11.6522 9.38137C11.5767 9.39125 11.5077 9.33908 11.4956 9.26437C11.3449 9.29175 11.1982 9.33077 11.0569 9.38125C11.0843 9.45214 11.0506 9.53223 10.98 9.56139C10.9095 9.5906 10.829 9.55789 10.7983 9.48836C10.7297 9.52093 10.6628 9.55661 10.5974 9.59446L11.5222 11.0039L11.7449 11.5245C11.7713 11.5111 11.7987 11.4994 11.8273 11.4901L11.6167 10.9647L11.2738 9.31388L11.8025 10.915L11.8828 11.4752C11.9115 11.4691 11.9412 11.4657 11.9713 11.4642L11.9039 10.9016L12 9.21826C11.9235 9.21826 11.848 9.2222 11.773 9.2282C11.7807 9.30325 11.7275 9.37136 11.6522 9.38137Z" fill="white"/>
<path d="M13.6226 9.90912C13.5621 9.86268 13.5502 9.77697 13.5947 9.7157C13.5325 9.67265 13.4684 9.63223 13.4027 9.59424L12.6444 11.0998L12.3049 11.553C12.33 11.5693 12.3535 11.5876 12.3755 11.6075L12.7256 11.162L13.9839 10.0398C13.9304 9.98625 13.8742 9.93533 13.8164 9.88625C13.7686 9.94473 13.6829 9.95539 13.6226 9.90912Z" fill="white"/>
<path d="M12.7256 12.8854L12.3755 12.4399C12.3535 12.4599 12.33 12.4782 12.3049 12.4944L12.6444 12.9477L13.4027 14.4532C13.4684 14.4152 13.5325 14.3748 13.5947 14.3317C13.5502 14.2705 13.5622 14.1847 13.6226 14.1383C13.6829 14.0921 13.7686 14.1027 13.8164 14.1612C13.8741 14.1121 13.9303 14.0612 13.9839 14.0076L12.7256 12.8854Z" fill="white"/>
<path d="M13.1222 12.12L12.5597 12.0526C12.5581 12.0827 12.5547 12.1124 12.5486 12.1411L13.1088 12.2214L14.7099 12.7501L13.0591 12.4072L12.5337 12.1966C12.5244 12.2252 12.5128 12.2527 12.4993 12.279L13.0199 12.5017L14.4294 13.4265C14.4672 13.3611 14.5029 13.2943 14.5355 13.2257C14.4659 13.1949 14.4332 13.1143 14.4624 13.0439C14.4916 12.9733 14.5717 12.9396 14.6426 12.967C14.693 12.8257 14.7321 12.6791 14.7594 12.5283C14.6847 12.5163 14.6326 12.4472 14.6424 12.3718C14.6524 12.2965 14.7205 12.2433 14.7956 12.2509C14.8016 12.176 14.8055 12.1004 14.8055 12.0239L13.1222 12.12Z" fill="white"/>
<path d="M14.6424 11.6759C14.6326 11.6004 14.6847 11.5313 14.7594 11.5193C14.732 11.3685 14.693 11.2219 14.6426 11.0805C14.5717 11.108 14.4916 11.0743 14.4624 11.0037C14.4332 10.9332 14.4659 10.8527 14.5355 10.8219C14.5029 10.7533 14.4672 10.6865 14.4293 10.6211L13.0199 11.5459L12.4993 11.7686C12.5128 11.7949 12.5244 11.8224 12.5337 11.8509L13.0591 11.6404L14.7099 11.2975L13.1088 11.8262L12.5486 11.9065C12.5547 11.9352 12.5581 11.9649 12.5597 11.995L13.1222 11.9275L14.8055 12.0237C14.8055 11.9472 14.8016 11.8716 14.7956 11.7967C14.7205 11.8043 14.6524 11.7512 14.6424 11.6759Z" fill="white"/>
<path d="M12.9238 12.6681L12.4705 12.3286C12.4543 12.3537 12.4359 12.3771 12.416 12.3992L12.8615 12.7492L13.9837 14.0076C14.0373 13.954 14.0882 13.8978 14.1373 13.8401C14.0788 13.7923 14.0682 13.7065 14.1144 13.6462C14.1608 13.5858 14.2466 13.5739 14.3078 13.6183C14.3509 13.5561 14.3913 13.492 14.4293 13.4263L12.9238 12.6681Z" fill="white"/>
<path d="M12.0286 11.4642C12.0588 11.4657 12.0885 11.4691 12.1172 11.4752L12.1975 10.915L12.7261 9.31385L12.3833 10.9647L12.1728 11.4901C12.2013 11.4993 12.2287 11.511 12.2551 11.5245L12.4777 11.0039L13.4026 9.59444C13.3371 9.55659 13.2703 9.52095 13.2017 9.48836C13.1709 9.55789 13.0904 9.5906 13.02 9.56139C12.9494 9.53223 12.9157 9.45214 12.9431 9.38125C12.8018 9.33077 12.6551 9.29175 12.5044 9.26437C12.4924 9.33908 12.4233 9.39123 12.3478 9.38137C12.2725 9.37138 12.2193 9.30327 12.227 9.2282C12.1521 9.2222 12.0765 9.21826 12 9.21826L12.0962 10.9015L12.0286 11.4642Z" fill="white"/>
<path d="M11.2744 11.1621L11.6245 11.6076C11.6465 11.5876 11.67 11.5693 11.6951 11.553L11.3556 11.0998L10.5973 9.59424C10.5316 9.63225 10.4675 9.67267 10.4053 9.71573C10.4498 9.777 10.4379 9.86273 10.3775 9.90914C10.3171 9.95541 10.2314 9.94476 10.1836 9.88625C10.1259 9.93535 10.0697 9.98623 10.0161 10.0398L11.2744 11.1621Z" fill="white"/>
<path d="M11.0761 11.3795L11.5293 11.719C11.5456 11.6939 11.5639 11.6705 11.5839 11.6484L11.1384 11.2983L10.0161 10.04C9.96255 10.0936 9.91164 10.1498 9.86256 10.2075C9.92108 10.2553 9.93171 10.3411 9.88546 10.4014C9.83904 10.4618 9.75332 10.4737 9.69204 10.4292C9.64899 10.4914 9.60857 10.5555 9.57056 10.6212L11.0761 11.3795Z" fill="white"/>
<path d="M11.9713 12.5833C11.9412 12.5818 11.9115 12.5784 11.8828 12.5723L11.8025 13.1325L11.2738 14.7336L11.6167 13.0828L11.8273 12.5574C11.7987 12.5481 11.7713 12.5365 11.7449 12.5229L11.5222 13.0436L10.5974 14.4531C10.6628 14.4909 10.7297 14.5265 10.7983 14.5592C10.829 14.4896 10.9095 14.4569 10.98 14.4861C11.0506 14.5153 11.0843 14.5954 11.0569 14.6663C11.1982 14.7167 11.3449 14.7557 11.4956 14.7831C11.5077 14.7084 11.5767 14.6563 11.6522 14.6661C11.7275 14.6761 11.7807 14.7442 11.773 14.8193C11.8479 14.8253 11.9235 14.8292 12 14.8292L11.9039 13.1459L11.9713 12.5833Z" fill="white"/>
<path d="M10.5973 14.4532L11.3556 12.9477L11.6951 12.4944C11.67 12.4782 11.6466 12.4599 11.6245 12.4399L11.2744 12.8854L10.0161 14.0076C10.0697 14.0612 10.1259 14.1121 10.1836 14.1612C10.2314 14.1027 10.3171 14.0921 10.3775 14.1383C10.4379 14.1847 10.4498 14.2705 10.4053 14.3317C10.4675 14.3748 10.5316 14.4152 10.5973 14.4532Z" fill="white"/>
<path d="M12.3478 14.6666C12.4233 14.6567 12.4923 14.7089 12.5044 14.7836C12.6551 14.7562 12.8018 14.7171 12.9431 14.6667C12.9157 14.5959 12.9494 14.5157 13.02 14.4865C13.0904 14.4574 13.1709 14.4901 13.2017 14.5596C13.2703 14.527 13.3372 14.4913 13.4026 14.4535L12.4778 13.0441L12.2551 12.5234C12.2288 12.5369 12.2014 12.5486 12.1727 12.5579L12.3833 13.0833L12.7262 14.7341L12.1975 13.133L12.1172 12.5728C12.0885 12.5789 12.0588 12.5823 12.0287 12.5838L12.0961 13.1464L12 14.8297C12.0765 14.8297 12.1521 14.8258 12.227 14.8197C12.2194 14.7447 12.2725 14.6766 12.3478 14.6666Z" fill="white"/>
<path d="M9.46443 13.2257C9.49702 13.2943 9.53266 13.3611 9.57051 13.4265L10.9799 12.5017L11.5006 12.2791C11.4871 12.2527 11.4754 12.2253 11.4662 12.1967L10.9408 12.4072L9.28993 12.7501L10.8911 12.2214L11.4512 12.1411C11.4451 12.1124 11.4417 12.0827 11.4402 12.0526L10.8776 12.1201L9.19434 12.0239C9.19434 12.1004 9.19827 12.176 9.20427 12.2509C9.27932 12.2433 9.34746 12.2965 9.35744 12.3718C9.36733 12.4473 9.31515 12.5163 9.24044 12.5283C9.26782 12.6791 9.30685 12.8257 9.35732 12.967C9.42822 12.9396 9.5083 12.9733 9.53746 13.0439C9.56667 13.1144 9.53394 13.1949 9.46443 13.2257Z" fill="white"/>
<path d="M11.5838 12.3992C11.5639 12.3771 11.5456 12.3537 11.5293 12.3286L11.0761 12.6681L9.57056 13.4264C9.60855 13.4921 9.64896 13.5562 9.69202 13.6183C9.75329 13.5739 9.83902 13.5859 9.88544 13.6462C9.93171 13.7065 9.92105 13.7923 9.86254 13.8401C9.91164 13.8978 9.96255 13.954 10.0161 14.0076L11.1383 12.7493L11.5838 12.3992Z" fill="white"/>
<path d="M11.4403 11.995C11.4418 11.9649 11.4452 11.9352 11.4513 11.9065L10.8911 11.8262L9.28995 11.2975L10.9408 11.6404L11.4662 11.851C11.4754 11.8224 11.4871 11.7949 11.5006 11.7686L10.98 11.5459L9.57054 10.6211C9.53269 10.6865 9.49702 10.7533 9.46443 10.822C9.53396 10.8527 9.5667 10.9332 9.53746 11.0037C9.5083 11.0743 9.42822 11.108 9.35732 11.0806C9.30685 11.2219 9.26782 11.3686 9.24044 11.5193C9.31515 11.5313 9.3673 11.6003 9.35744 11.6759C9.34746 11.7512 9.27934 11.8043 9.20427 11.7967C9.19827 11.8716 9.19434 11.9472 9.19434 12.0237L10.8776 11.9276L11.4403 11.995Z" fill="white"/>
</g>
</g>
<defs>
<clipPath id="clip0_553_1918">
<rect width="24" height="24" fill="white"/>
</clipPath>
</defs>
</svg>
