<svg width="16" height="16" viewBox="0 0 16 16" fill="none" xmlns="http://www.w3.org/2000/svg">
<g clip-path="url(#clip0_2020_4802)">
<path d="M5.50028 0.866322C5.44185 0.800898 5.36978 0.749084 5.28915 0.714529C5.20852 0.679973 5.12129 0.663518 5.03362 0.666322C4.85777 0.668827 4.69004 0.740713 4.56695 0.866322C4.50229 0.92565 4.45066 0.997768 4.41535 1.0781C4.38003 1.15844 4.36179 1.24523 4.36179 1.33299C4.36179 1.42074 4.38003 1.50754 4.41535 1.58788C4.45066 1.66821 4.50229 1.74033 4.56695 1.79966L6.46695 3.66632L2.06695 8.03299C1.94196 8.15418 1.84258 8.29924 1.77471 8.45957C1.70685 8.6199 1.67188 8.79222 1.67188 8.96632C1.67188 9.14042 1.70685 9.31275 1.77471 9.47307C1.84258 9.6334 1.94196 9.77847 2.06695 9.89966L6.46695 14.2663C6.58651 14.3938 6.73116 14.4951 6.89178 14.5639C7.0524 14.6328 7.22554 14.6676 7.40028 14.6663C7.57474 14.6657 7.74727 14.6299 7.90762 14.5612C8.06797 14.4925 8.21284 14.3922 8.33362 14.2663L13.667 8.96632L5.50028 0.866322ZM3.03362 8.96632L7.40028 4.63299L11.7336 8.96632H3.03362Z" fill="#656565"/>
<path d="M13.6654 10.666C13.6654 10.666 12.332 12.5993 12.332 13.3327C12.332 13.6863 12.4725 14.0254 12.7226 14.2755C12.9726 14.5255 13.3117 14.666 13.6654 14.666C14.019 14.666 14.3581 14.5255 14.6082 14.2755C14.8582 14.0254 14.9987 13.6863 14.9987 13.3327C14.9987 12.5993 13.6654 10.666 13.6654 10.666Z" fill="#656565"/>
</g>
<defs>
<clipPath id="clip0_2020_4802">
<rect width="16" height="16" fill="white"/>
</clipPath>
</defs>
</svg>
