<svg width="26" height="26" viewBox="0 0 26 26" fill="none" xmlns="http://www.w3.org/2000/svg">
<circle cx="12.75" cy="12.75" r="12" stroke="#D80027" stroke-opacity="0.15" stroke-width="1.5"/>
<path d="M9.75 10.75V9.75C9.75 8.095 10.25 6.75 12.75 6.75C15.25 6.75 15.75 8.095 15.75 9.75V10.75" stroke="#D80027" stroke-linecap="round" stroke-linejoin="round"/>
<path d="M12.75 15C13.4404 15 14 14.4404 14 13.75C14 13.0596 13.4404 12.5 12.75 12.5C12.0596 12.5 11.5 13.0596 11.5 13.75C11.5 14.4404 12.0596 15 12.75 15Z" stroke="#D80027" stroke-linecap="round" stroke-linejoin="round"/>
<path d="M15.25 16.75H10.25C8.25 16.75 7.75 16.25 7.75 14.25V13.25C7.75 11.25 8.25 10.75 10.25 10.75H15.25C17.25 10.75 17.75 11.25 17.75 13.25V14.25C17.75 16.25 17.25 16.75 15.25 16.75Z" stroke="#D80027" stroke-linecap="round" stroke-linejoin="round"/>
</svg>
