<svg width="39" height="39" viewBox="0 0 39 39" fill="none" xmlns="http://www.w3.org/2000/svg">
<circle cx="19.5" cy="19.5" r="19" stroke="#EEECE6"/>
<path d="M27.067 16.6501V22.3501C27.067 23.2834 26.567 24.1501 25.7586 24.6251L20.8086 27.4834C20.0003 27.9501 19.0003 27.9501 18.1836 27.4834L13.2336 24.6251C12.4253 24.1584 11.9253 23.2917 11.9253 22.3501V16.6501C11.9253 15.7168 12.4253 14.8501 13.2336 14.3751L18.1836 11.5167C18.992 11.0501 19.992 11.0501 20.8086 11.5167L25.7586 14.3751C26.567 14.8501 27.067 15.7084 27.067 16.6501Z" stroke="#E3B40A" stroke-width="1.5" stroke-linecap="round" stroke-linejoin="round"/>
<path d="M19.4998 18.6668C20.5721 18.6668 21.4414 17.7974 21.4414 16.7251C21.4414 15.6527 20.5721 14.7834 19.4998 14.7834C18.4274 14.7834 17.5581 15.6527 17.5581 16.7251C17.5581 17.7974 18.4274 18.6668 19.4998 18.6668Z" stroke="#E3B40A" stroke-width="1.5" stroke-linecap="round" stroke-linejoin="round"/>
<path d="M22.8332 23.3834C22.8332 21.8834 21.3415 20.6667 19.4998 20.6667C17.6582 20.6667 16.1665 21.8834 16.1665 23.3834" stroke="#E3B40A" stroke-width="1.5" stroke-linecap="round" stroke-linejoin="round"/>
</svg>
