<svg width="415" height="160" viewBox="0 0 415 160" fill="none" xmlns="http://www.w3.org/2000/svg">
<mask id="mask0_201_581" style="mask-type:alpha" maskUnits="userSpaceOnUse" x="0" y="0" width="415" height="160">
<path d="M0 10C0 4.47715 4.47715 0 10 0H405C410.523 0 415 4.47715 415 10V160H0V10Z" fill="#6CA41E"/>
</mask>
<g mask="url(#mask0_201_581)">
<path d="M207.31 82L223 275H193L207.31 82Z" fill="url(#paint0_linear_201_581)" fill-opacity="0.1"/>
<path d="M207.69 83L192 -110H222L207.69 83Z" fill="url(#paint1_linear_201_581)" fill-opacity="0.1"/>
<path d="M207.513 81.9653L149.365 266.665L121.574 255.367L207.513 81.9653Z" fill="url(#paint2_linear_201_581)" fill-opacity="0.1"/>
<path d="M207.488 83.0344L265.635 -101.665L293.427 -90.3677L207.488 83.0344Z" fill="url(#paint3_linear_201_581)" fill-opacity="0.1"/>
<path d="M207.487 81.9653L265.635 266.665L293.426 255.367L207.487 81.9653Z" fill="url(#paint4_linear_201_581)" fill-opacity="0.1"/>
<path d="M207.512 83.0344L149.365 -101.665L121.573 -90.3677L207.512 83.0344Z" fill="url(#paint5_linear_201_581)" fill-opacity="0.1"/>
<path d="M206.591 81.9384L354.156 207.316L332.943 228.529L206.591 81.9384Z" fill="url(#paint6_linear_201_581)" fill-opacity="0.1"/>
<path d="M207.566 82.3772L60 -43.0001L81.2132 -64.2133L207.566 82.3772Z" fill="url(#paint7_linear_201_581)" fill-opacity="0.1"/>
<path d="M206.544 82.1521L391.978 137.912L381.04 165.847L206.544 82.1521Z" fill="url(#paint8_linear_201_581)" fill-opacity="0.1"/>
<path d="M207.613 82.1636L22.1786 26.4034L33.1169 -1.5314L207.613 82.1636Z" fill="url(#paint9_linear_201_581)" fill-opacity="0.1"/>
<path d="M207.409 81.9384L59.8435 207.316L81.0567 228.529L207.409 81.9384Z" fill="url(#paint10_linear_201_581)" fill-opacity="0.1"/>
<path d="M206.434 82.3772L354 -43.0001L332.787 -64.2133L206.434 82.3772Z" fill="url(#paint11_linear_201_581)" fill-opacity="0.1"/>
<path d="M207.456 82.1338L24.0464 144.231L35.9378 171.774L207.456 82.1338Z" fill="url(#paint12_linear_201_581)" fill-opacity="0.1"/>
<path d="M206.388 82.1818L389.797 20.0846L377.906 -7.45793L206.388 82.1818Z" fill="url(#paint13_linear_201_581)" fill-opacity="0.1"/>
<path d="M207 82.6897L400 67V97L207 82.6897Z" fill="url(#paint14_linear_201_581)" fill-opacity="0.1"/>
<path d="M208 82.3103L15 98V68L208 82.3103Z" fill="url(#paint15_linear_201_581)" fill-opacity="0.1"/>
</g>
<path d="M208 109.167C224.108 109.167 237.167 96.1082 237.167 79.9999C237.167 63.8916 224.108 50.8333 208 50.8333C191.892 50.8333 178.833 63.8916 178.833 79.9999C178.833 96.1082 191.892 109.167 208 109.167Z" fill="white"/>
<path d="M194.875 79.9999L203.625 88.7499L221.125 71.2499M237.167 79.9999C237.167 96.1082 224.108 109.167 208 109.167C191.892 109.167 178.833 96.1082 178.833 79.9999C178.833 63.8916 191.892 50.8333 208 50.8333C224.108 50.8333 237.167 63.8916 237.167 79.9999Z" stroke="#3157FF" stroke-width="5" stroke-linecap="round" stroke-linejoin="round"/>
<defs>
<linearGradient id="paint0_linear_201_581" x1="208" y1="82" x2="208" y2="275" gradientUnits="userSpaceOnUse">
<stop stop-color="#3157FF"/>
<stop offset="1" stop-color="#3157FF" stop-opacity="0"/>
</linearGradient>
<linearGradient id="paint1_linear_201_581" x1="207" y1="83" x2="207" y2="-110" gradientUnits="userSpaceOnUse">
<stop stop-color="#3157FF"/>
<stop offset="1" stop-color="#3157FF" stop-opacity="0"/>
</linearGradient>
<linearGradient id="paint2_linear_201_581" x1="208.152" y1="82.225" x2="135.469" y2="261.016" gradientUnits="userSpaceOnUse">
<stop stop-color="#3157FF"/>
<stop offset="1" stop-color="#3157FF" stop-opacity="0"/>
</linearGradient>
<linearGradient id="paint3_linear_201_581" x1="206.849" y1="82.7747" x2="279.531" y2="-96.0165" gradientUnits="userSpaceOnUse">
<stop stop-color="#3157FF"/>
<stop offset="1" stop-color="#3157FF" stop-opacity="0"/>
</linearGradient>
<linearGradient id="paint4_linear_201_581" x1="206.848" y1="82.225" x2="279.531" y2="261.016" gradientUnits="userSpaceOnUse">
<stop stop-color="#3157FF"/>
<stop offset="1" stop-color="#3157FF" stop-opacity="0"/>
</linearGradient>
<linearGradient id="paint5_linear_201_581" x1="208.151" y1="82.7747" x2="135.469" y2="-96.0165" gradientUnits="userSpaceOnUse">
<stop stop-color="#3157FF"/>
<stop offset="1" stop-color="#3157FF" stop-opacity="0"/>
</linearGradient>
<linearGradient id="paint6_linear_201_581" x1="207.078" y1="81.4508" x2="343.55" y2="217.922" gradientUnits="userSpaceOnUse">
<stop stop-color="#3157FF"/>
<stop offset="1" stop-color="#3157FF" stop-opacity="0"/>
</linearGradient>
<linearGradient id="paint7_linear_201_581" x1="207.078" y1="82.8649" x2="70.6066" y2="-53.6067" gradientUnits="userSpaceOnUse">
<stop stop-color="#3157FF"/>
<stop offset="1" stop-color="#3157FF" stop-opacity="0"/>
</linearGradient>
<linearGradient id="paint8_linear_201_581" x1="206.795" y1="81.5099" x2="386.509" y2="151.88" gradientUnits="userSpaceOnUse">
<stop stop-color="#3157FF"/>
<stop offset="1" stop-color="#3157FF" stop-opacity="0"/>
</linearGradient>
<linearGradient id="paint9_linear_201_581" x1="207.362" y1="82.8058" x2="27.6477" y2="12.436" gradientUnits="userSpaceOnUse">
<stop stop-color="#3157FF"/>
<stop offset="1" stop-color="#3157FF" stop-opacity="0"/>
</linearGradient>
<linearGradient id="paint10_linear_201_581" x1="206.922" y1="81.4508" x2="70.4501" y2="217.922" gradientUnits="userSpaceOnUse">
<stop stop-color="#3157FF"/>
<stop offset="1" stop-color="#3157FF" stop-opacity="0"/>
</linearGradient>
<linearGradient id="paint11_linear_201_581" x1="206.922" y1="82.8649" x2="343.393" y2="-53.6067" gradientUnits="userSpaceOnUse">
<stop stop-color="#3157FF"/>
<stop offset="1" stop-color="#3157FF" stop-opacity="0"/>
</linearGradient>
<linearGradient id="paint12_linear_201_581" x1="207.183" y1="81.5007" x2="29.9921" y2="158.002" gradientUnits="userSpaceOnUse">
<stop stop-color="#3157FF"/>
<stop offset="1" stop-color="#3157FF" stop-opacity="0"/>
</linearGradient>
<linearGradient id="paint13_linear_201_581" x1="206.661" y1="82.815" x2="383.852" y2="6.31335" gradientUnits="userSpaceOnUse">
<stop stop-color="#3157FF"/>
<stop offset="1" stop-color="#3157FF" stop-opacity="0"/>
</linearGradient>
<linearGradient id="paint14_linear_201_581" x1="207" y1="82" x2="400" y2="82" gradientUnits="userSpaceOnUse">
<stop stop-color="#3157FF"/>
<stop offset="1" stop-color="#3157FF" stop-opacity="0"/>
</linearGradient>
<linearGradient id="paint15_linear_201_581" x1="208" y1="83" x2="15" y2="83" gradientUnits="userSpaceOnUse">
<stop stop-color="#3157FF"/>
<stop offset="1" stop-color="#3157FF" stop-opacity="0"/>
</linearGradient>
</defs>
</svg>
