<svg width="91" height="49" viewBox="0 0 91 49" fill="none" xmlns="http://www.w3.org/2000/svg">
<mask id="mask0_1_118" style="mask-type:alpha" maskUnits="userSpaceOnUse" x="0" y="0" width="91" height="49">
<path d="M29.6033 0.00329177L0.270363 2.93659C0.117002 2.95192 0.000213623 3.08097 0.000213623 3.2351L0.000213623 44.7462C0.000213623 44.8989 0.114926 45.0273 0.266676 45.0443L28.8891 48.2644L90.6963 46.4677C90.8635 46.4628 90.9944 46.3222 90.9873 46.155L89.3425 7.45192C89.3362 7.3051 89.2245 7.18441 89.0786 7.16682L29.6691 0.00395989C29.6472 0.00132794 29.6252 0.0011039 29.6033 0.00329177Z" fill="#D9D9D9"/>
</mask>
<g mask="url(#mask0_1_118)">
<path d="M88.5918 7.39886L88.9164 43.9092L29.5211 45.6043V0.165604L88.5918 7.39886Z" fill="#EBEAF1"/>
<path d="M29.5211 0.165604V45.6043L2.08534 42.9401V2.82984L29.5211 0.165604Z" fill="white"/>
<path d="M29.5212 36.3067V45.6029L2.08595 42.9369V2.83358L9.9619 2.06683C8.09746 4.41915 6.9996 7.38145 6.9996 10.5789V25.7819C6.9996 29.3192 8.34131 32.5602 10.5543 34.9996C12.776 37.4477 15.8776 39.0944 19.3886 39.4342C23.2223 39.8091 26.8118 38.5719 29.5212 36.3067Z" fill="#EBEAF1"/>
<path d="M18.4451 19.7315V27.1345C18.4451 28.6399 17.2248 29.8602 15.7194 29.8602C14.214 29.8602 12.9937 28.6399 12.9937 27.1345V19.7315C12.9937 18.2261 14.214 17.0058 15.7194 17.0058C17.2248 17.0058 18.4451 18.2261 18.4451 19.7315Z" fill="#EBEAF1"/>
<path d="M2.00056 43.8069L29.4369 46.4713C29.4947 46.4773 29.5041 46.4746 29.5458 46.4752L88.9406 44.7803C89.4153 44.7666 89.7914 44.3761 89.7871 43.9018L89.463 7.39138C89.4605 7.15802 89.287 6.81428 89.0716 6.67209L47.1367 -21.0118C48.5279 -21.6854 49.4976 -23.0988 49.4976 -24.7458C49.4976 -26.7407 48.0851 -28.4088 46.2092 -28.8104V-33.773H52.033C53.4241 -33.773 54.5564 -34.9049 54.5564 -36.2964C54.5564 -39.6567 51.8227 -42.3908 48.4621 -42.3908H42.2146C38.8538 -42.3908 36.1202 -39.6567 36.1202 -36.2964C36.1202 -34.9049 37.2528 -33.773 38.6437 -33.773H44.4666V-28.2001C44.4666 -28.1699 44.4809 -28.1445 44.4839 -28.115C44.4812 -28.0871 44.4675 -28.0627 44.4675 -28.0341C44.4675 -27.553 44.8571 -27.1628 45.3388 -27.1628C46.6711 -27.1628 47.7551 -26.0785 47.7551 -24.7456C47.7551 -23.4128 46.6711 -22.3285 45.3388 -22.3285C44.0056 -22.3285 42.9216 -23.4128 42.9216 -24.7456C42.9216 -25.2268 42.532 -25.6169 42.0503 -25.6169C41.5687 -25.6169 41.1791 -25.2268 41.1791 -24.7456C41.1791 -23.2409 41.9899 -21.9326 43.1898 -21.2022L1.65843 2.06949C1.40071 2.21399 1.21338 2.57408 1.21338 2.82966V42.9399C1.21356 43.3881 1.55392 43.7638 2.00056 43.8069ZM37.8626 -36.2966C37.8626 -38.6964 39.8152 -40.6486 42.2146 -40.6486H48.4621C50.8613 -40.6486 52.8141 -38.6964 52.8141 -36.2966C52.8141 -35.8661 52.4636 -35.5156 52.0331 -35.5156H38.6439C38.2131 -35.5155 37.8626 -35.866 37.8626 -36.2966ZM15.7201 17.8772C16.7427 17.8772 17.574 18.7088 17.574 19.7315V27.1345C17.574 28.1572 16.7427 28.9888 15.7201 28.9888C14.6974 28.9888 13.8652 28.1572 13.8652 27.1345V19.7315C13.8652 18.709 14.6974 17.8772 15.7201 17.8772ZM16.6738 30.5866C18.1923 30.1656 19.3163 28.7854 19.3163 27.1345V19.7315C19.3163 18.0805 18.1923 16.7004 16.6738 16.2794V2.28828L28.6499 1.12537V44.6438L16.6738 43.4809V30.5866ZM31.0968 -0.519211L45.1847 -19.8834L65.1898 3.65559C49.0666 1.68132 41.17 0.714268 31.0968 -0.519211ZM67.7415 3.96805L49.7569 -17.1942L85.0182 6.08362L67.7415 3.96805ZM29.0469 -0.663353L6.1304 1.5617L42.0866 -18.5868L29.0469 -0.663353ZM2.95606 3.6204L14.9313 2.45749V16.228C13.3272 16.5893 12.1227 18.0199 12.1227 19.7315V27.1345C12.1227 28.8461 13.3272 30.2765 14.9313 30.638V43.3117L2.95606 42.1488V3.6204ZM30.3924 44.7078V1.15025C33.3616 1.51389 79.3534 7.1454 87.7274 8.17075L88.037 43.0629L30.3924 44.7078Z" fill="#241D1A" stroke="white" stroke-width="1.2"/>
<path d="M39.7845 8.36221C39.303 8.36221 38.9133 8.75234 38.9133 9.23347V36.4371C38.9133 36.9183 39.3029 37.3084 39.7845 37.3084C40.266 37.3084 40.6558 36.9183 40.6558 36.4371V9.23329C40.6558 8.75216 40.266 8.36221 39.7845 8.36221Z" fill="#241D1A" stroke="#EBEAF1" stroke-width="1.2"/>
<path d="M49.6487 9.95648C49.1672 9.95648 48.7774 10.3466 48.7774 10.8277V35.8389C48.7774 36.32 49.167 36.7101 49.6487 36.7101C50.1301 36.7101 50.5199 36.32 50.5199 35.8389V10.8277C50.5199 10.3466 50.1303 9.95648 49.6487 9.95648Z" fill="#241D1A" stroke="#EBEAF1" stroke-width="1.2"/>
<path d="M59.5134 11.5509C59.0319 11.5509 58.6421 11.941 58.6421 12.4222V34.6431C58.6421 35.1242 59.0317 35.5143 59.5134 35.5143C59.9949 35.5143 60.3846 35.1242 60.3846 34.6431V12.4222C60.3846 11.941 59.9949 11.5509 59.5134 11.5509Z" fill="#241D1A" stroke="#EBEAF1" stroke-width="1.2"/>
<path d="M69.3793 12.2482C68.8978 12.2482 68.5081 12.6383 68.5081 13.1194V35.4402C68.5081 35.9213 68.8977 36.3115 69.3793 36.3115C69.8608 36.3115 70.2506 35.9213 70.2506 35.4402V13.1194C70.2504 12.6383 69.8608 12.2482 69.3793 12.2482Z" fill="#241D1A" stroke="#EBEAF1" stroke-width="1.2"/>
<path d="M79.2434 14.2413C78.762 14.2413 78.3722 14.6314 78.3722 15.1125V35.4402C78.3722 35.9213 78.7618 36.3115 79.2434 36.3115C79.7251 36.3115 80.1147 35.9213 80.1147 35.4402V15.1125C80.1147 14.6314 79.7251 14.2413 79.2434 14.2413Z" fill="#241D1A" stroke="#EBEAF1" stroke-width="1.2"/>
</g>
</svg>
