<svg width="63" height="33" viewBox="0 0 63 33" fill="none" xmlns="http://www.w3.org/2000/svg">
<mask id="mask0_1_528" style="mask-type:alpha" maskUnits="userSpaceOnUse" x="0" y="0" width="63" height="33">
<path d="M20.2302 32.9967L0.270149 31.0007C0.116788 30.9853 0 30.8563 0 30.7022L0 2.49028C0 2.33757 0.114712 2.20923 0.266463 2.19216L19.7523 0L61.9158 1.22569C62.083 1.23055 62.2139 1.37119 62.2068 1.5383L61.0897 27.8243C61.0835 27.9711 60.9718 28.0918 60.8259 28.1094L20.296 32.996C20.2742 32.9986 20.2521 32.9989 20.2302 32.9967Z" fill="#D9D9D9"/>
</mask>
<g mask="url(#mask0_1_528)">
<path d="M60.5728 27.9411L60.7947 2.97774L20.1842 1.81878V32.8867L60.5728 27.9411Z" fill="#E3DBCE"/>
<path d="M20.1844 32.8867V1.81878L1.42566 3.64041V31.0651L20.1844 32.8867Z" fill="white"/>
<path d="M20.1844 8.17593V1.81979L1.42603 3.64264V31.0626L6.81107 31.5868C5.5363 29.9785 4.78565 27.9531 4.78565 25.7669V15.372C4.78565 12.9535 5.70303 10.7375 7.21611 9.06961C8.73514 7.39575 10.8558 6.26984 13.2564 6.03749C15.8777 5.7812 18.3319 6.62712 20.1844 8.17593Z" fill="#E3DBCE"/>
<path d="M12.6113 19.5089V14.4472C12.6113 13.4179 11.7769 12.5835 10.7476 12.5835C9.71829 12.5835 8.88391 13.4179 8.88391 14.4472V19.5089C8.88391 20.5382 9.71829 21.3726 10.7476 21.3726C11.7769 21.3726 12.6113 20.5382 12.6113 19.5089Z" fill="#E3DBCE"/>
<path d="M1.36757 3.04775L20.1267 1.226C20.1662 1.22187 20.1726 1.22369 20.2012 1.22332L60.8114 2.38217C61.136 2.39153 61.3931 2.65851 61.3902 2.98285L61.1685 27.9462C61.1668 28.1058 61.0482 28.3408 60.9009 28.438L32.2287 47.3664C33.1799 47.827 33.8429 48.7934 33.8429 49.9195C33.8429 51.2835 32.8771 52.424 31.5945 52.6986V56.0917H35.5764C36.5276 56.0917 37.3018 56.8656 37.3018 57.817C37.3018 60.1146 35.4326 61.9839 33.1349 61.9839H28.8632C26.5654 61.9839 24.6963 60.1146 24.6963 57.817C24.6963 56.8656 25.4707 56.0917 26.4217 56.0917H30.4031V52.2813C30.4031 52.2607 30.4128 52.2433 30.4148 52.2231C30.413 52.204 30.4037 52.1874 30.4037 52.1678C30.4037 51.8388 30.67 51.5721 30.9994 51.5721C31.9103 51.5721 32.6515 50.8307 32.6515 49.9194C32.6515 49.0081 31.9103 48.2667 30.9994 48.2667C30.0878 48.2667 29.3467 49.0081 29.3467 49.9194C29.3467 50.2484 29.0803 50.5151 28.7509 50.5151C28.4216 50.5151 28.1552 50.2484 28.1552 49.9194C28.1552 48.8906 28.7096 47.996 29.53 47.4966L1.13364 31.585C0.957431 31.4862 0.829346 31.24 0.829346 31.0652L0.829346 3.64054C0.829467 3.33406 1.06218 3.07716 1.36757 3.04775ZM25.8876 57.8172C25.8876 59.458 27.2227 60.7928 28.8632 60.7928H33.1349C34.7753 60.7928 36.1105 59.458 36.1105 57.8172C36.1105 57.5228 35.8709 57.2832 35.5765 57.2832H26.4218C26.1273 57.2831 25.8876 57.5227 25.8876 57.8172ZM10.748 20.7767C11.4473 20.7767 12.0157 20.2081 12.0157 19.5089V14.4472C12.0157 13.748 11.4473 13.1794 10.748 13.1794C10.0488 13.1794 9.47984 13.748 9.47984 14.4472V19.5089C9.47984 20.208 10.0488 20.7767 10.748 20.7767ZM11.4001 12.0869C12.4384 12.3748 13.2069 13.3184 13.2069 14.4472V19.5089C13.2069 20.6377 12.4384 21.5813 11.4001 21.8692V31.4354L19.5886 32.2305V2.4755L11.4001 3.27063V12.0869ZM21.2616 33.355L30.894 46.5949L44.5721 30.5005C33.5482 31.8504 28.149 32.5116 21.2616 33.355ZM46.3168 30.2869L34.0202 44.7562L58.1295 28.8404L46.3168 30.2869ZM19.8601 33.4535L4.19128 31.9322L28.7757 45.7084L19.8601 33.4535ZM2.02088 30.5246L10.2087 31.3197V21.9043C9.11199 21.6573 8.28843 20.6791 8.28843 19.5089V14.4472C8.28843 13.277 9.11199 12.2989 10.2087 12.0518V3.38631L2.02088 4.18144V30.5246ZM20.78 2.43175V32.2135C22.8102 31.9649 54.2563 28.1144 59.9819 27.4133L60.1936 3.55645L20.78 2.43175Z" fill="#241D1A" stroke="white" stroke-width="0.5"/>
<path d="M27.2017 27.2825C26.8725 27.2825 26.606 27.0157 26.606 26.6867V8.08669C26.606 7.75772 26.8723 7.49098 27.2017 7.49098C27.5309 7.49098 27.7974 7.75772 27.7974 8.08669V26.6869C27.7974 27.0158 27.5309 27.2825 27.2017 27.2825Z" fill="#241D1A" stroke="#E3DBCE" stroke-width="0.5"/>
<path d="M33.9462 26.1924C33.617 26.1924 33.3505 25.9257 33.3505 25.5967V8.49575C33.3505 8.16679 33.6168 7.90005 33.9462 7.90005C34.2754 7.90005 34.5419 8.16679 34.5419 8.49575V25.5967C34.5419 25.9257 34.2755 26.1924 33.9462 26.1924Z" fill="#241D1A" stroke="#E3DBCE" stroke-width="0.5"/>
<path d="M40.691 25.1023C40.3618 25.1023 40.0953 24.8355 40.0953 24.5066V9.3134C40.0953 8.98443 40.3617 8.71769 40.691 8.71769C41.0202 8.71769 41.2867 8.98443 41.2867 9.3134V24.5066C41.2867 24.8355 41.0202 25.1023 40.691 25.1023Z" fill="#241D1A" stroke="#E3DBCE" stroke-width="0.5"/>
<path d="M47.4369 24.6255C47.1077 24.6255 46.8412 24.3588 46.8412 24.0298V8.76835C46.8412 8.43939 47.1076 8.17264 47.4369 8.17264C47.7661 8.17264 48.0326 8.43939 48.0326 8.76835V24.0298C48.0325 24.3588 47.7661 24.6255 47.4369 24.6255Z" fill="#241D1A" stroke="#E3DBCE" stroke-width="0.5"/>
<path d="M54.181 23.2628C53.8518 23.2628 53.5853 22.996 53.5853 22.667V8.76835C53.5853 8.43939 53.8517 8.17264 54.181 8.17264C54.5104 8.17264 54.7767 8.43939 54.7767 8.76835V22.667C54.7767 22.996 54.5104 23.2628 54.181 23.2628Z" fill="#241D1A" stroke="#E3DBCE" stroke-width="0.5"/>
</g>
</svg>
