<svg width="33" height="27" viewBox="0 0 33 27" fill="none" xmlns="http://www.w3.org/2000/svg">
<path d="M19.4626 1.38672V15.1639L2.89099 23.3902V7.01793L19.4626 1.38672Z" fill="#E0E4EC"/>
<path fill-rule="evenodd" clip-rule="evenodd" d="M19.5073 1.32438C19.5275 1.33879 19.5397 1.36202 19.5397 1.38676V15.164C19.5397 15.1931 19.5232 15.2197 19.4969 15.2326L2.92532 23.4589C2.90148 23.4708 2.87316 23.4695 2.85049 23.4555C2.82783 23.4415 2.81403 23.4168 2.81403 23.3903V7.018C2.81403 6.98516 2.835 6.956 2.86615 6.9454L19.438 1.31416C19.4612 1.30618 19.4871 1.30998 19.5073 1.32438ZM2.96798 7.07287V23.2664L19.3858 15.1165V1.49396L2.96798 7.07287Z" fill="#555F8C"/>
<path d="M31.4753 16.8025L19.463 15.1641L2.87177 23.4112L6.24325 23.9601L7.62562 23.2638L13.03 24.2137V25.0745L16.3577 25.6066L31.4753 16.8025Z" fill="#E0E4EC"/>
<path fill-rule="evenodd" clip-rule="evenodd" d="M19.4286 15.0955C19.4424 15.0886 19.4579 15.086 19.4734 15.0881L31.4857 16.7266C31.5181 16.731 31.5443 16.7555 31.5507 16.7876C31.5571 16.8197 31.5423 16.8523 31.514 16.8688L16.3965 25.6729C16.3811 25.6818 16.3631 25.6852 16.3455 25.6824L13.0178 25.1503C12.9805 25.1444 12.953 25.1123 12.953 25.0746V24.2781L7.63745 23.3438L6.27795 24.0285C6.2634 24.0358 6.2469 24.0384 6.23084 24.0358L2.85935 23.4869C2.82639 23.4816 2.80066 23.4556 2.79568 23.4227C2.79066 23.3898 2.80753 23.3574 2.8374 23.3426L19.4286 15.0955ZM19.4758 15.2433L3.11945 23.3738L6.23091 23.8804L7.59088 23.1954C7.60573 23.1879 7.6226 23.1854 7.63897 23.1883L13.0434 24.1382C13.0802 24.1447 13.107 24.1765 13.107 24.2137V25.0092L16.3426 25.5265L31.244 16.8484L19.4758 15.2433Z" fill="#555F8C"/>
<path d="M31.4753 16.8098V2.5083L16.3693 8.61972V25.6157L31.4753 16.8098Z" fill="#BAC7FF"/>
<path fill-rule="evenodd" clip-rule="evenodd" d="M31.5181 2.44423C31.5393 2.45848 31.5521 2.48234 31.5521 2.50786V16.8093C31.5521 16.8366 31.5376 16.8618 31.514 16.8756L16.4081 25.6815C16.3843 25.6954 16.3549 25.6955 16.331 25.6818C16.307 25.6681 16.2923 25.6428 16.2923 25.6153V8.6193C16.2923 8.58808 16.3113 8.55997 16.3403 8.54822L31.4463 2.43679C31.4699 2.42719 31.4968 2.42998 31.5181 2.44423ZM16.4462 8.67094V25.4815L31.3982 16.7654V2.62178L16.4462 8.67094Z" fill="#555F8C"/>
<path d="M30.8321 16.5039V3.67334L30.1307 3.9645L29.4293 4.25563L28.5379 4.62563L27.5149 5.05024L26.2727 5.5658L25.0015 6.09352L23.73 6.62123L22.2541 7.23383L20.6759 7.88892L19.0427 8.56675L17.1831 9.33861V24.31L19.0427 23.2465L20.6759 22.3125L22.2541 21.4099L23.73 20.5658L25.0015 19.8386L26.2727 19.1115L27.5149 18.4011L28.5379 17.8161L29.4293 17.3062L30.1307 16.9051L30.8321 16.5039Z" fill="#BAC7FF"/>
<path fill-rule="evenodd" clip-rule="evenodd" d="M30.8749 3.60956C30.8964 3.6238 30.9092 3.64773 30.9092 3.67338V16.5039C30.9092 16.5314 30.8944 16.5568 30.8705 16.5705L17.2214 24.3766C17.1976 24.3902 17.1683 24.3901 17.1446 24.3764C17.1208 24.3627 17.1061 24.3374 17.1061 24.3101V9.33865C17.1061 9.30767 17.1248 9.27973 17.1535 9.26785L30.8028 3.60257C30.8264 3.59271 30.8537 3.59535 30.8749 3.60956ZM30.2078 4.01567V16.7727L30.7553 16.4595V3.78843L30.2078 4.01567ZM30.0539 16.8607V4.07956L29.5064 4.30683V17.1738L30.0539 16.8607ZM29.3525 17.2619V4.37072L28.6151 4.6768V17.6836L29.3525 17.2619ZM28.4608 17.7717V4.74072L27.5921 5.10141V18.2687L28.4608 17.7717ZM27.4382 18.3567V5.1653L26.3498 5.61697V18.9791L27.4382 18.3567ZM26.196 19.0671V5.68086L25.0783 6.14469V19.7062L26.196 19.0671ZM24.9244 19.7943V6.20858L23.8072 6.6724V20.4333L24.9244 19.7943ZM23.6529 20.5214V6.73629L22.3309 7.28503V21.2775L23.6529 20.5214ZM22.177 21.3655V7.34892L20.7526 7.94009V22.1801L22.177 21.3655ZM20.5988 22.2681V8.00401L19.1198 8.61792V23.1141L20.5988 22.2681ZM18.9659 23.2021V8.68181L17.2601 9.38978V24.1776L18.9659 23.2021Z" fill="#555F8C"/>
<path fill-rule="evenodd" clip-rule="evenodd" d="M9.56311 23.6534V8.93164H9.71707V23.6534H9.56311Z" fill="#555F8C"/>
<path d="M2.92554 23.4181L6.29507 23.9675L7.63901 23.2653L13.0342 24.2052V25.0662L16.4037 25.6155V8.64705L2.92554 7.04541V23.4181Z" fill="#BAC7FF"/>
<path fill-rule="evenodd" clip-rule="evenodd" d="M2.87437 6.98812C2.89084 6.97354 2.91276 6.96669 2.93461 6.96929L16.4128 8.57093C16.4515 8.57552 16.4806 8.60822 16.4806 8.64707V25.6155C16.4806 25.638 16.4707 25.6594 16.4535 25.674C16.4363 25.6886 16.4135 25.6949 16.3912 25.6912L13.0217 25.1419C12.9845 25.1358 12.9571 25.1038 12.9571 25.0662V24.2697L7.65153 23.3454L6.33078 24.0354C6.316 24.0432 6.2991 24.0459 6.2826 24.0432L2.91306 23.4939C2.87585 23.4878 2.84851 23.4558 2.84851 23.4182V7.04546C2.84851 7.02353 2.85794 7.00267 2.87437 6.98812ZM3.00247 7.13186V23.353L6.28209 23.8877L7.60324 23.1974C7.61829 23.1896 7.6355 23.1869 7.65223 23.1898L13.0474 24.1297C13.0842 24.1361 13.1111 24.168 13.1111 24.2052V25.001L16.3267 25.5253V8.71518L3.00247 7.13186Z" fill="#555F8C"/>
<path d="M10.1019 23.7125L15.5273 24.6358V10.4303L10.1019 9.76807V23.7125Z" fill="#BAC7FF"/>
<path fill-rule="evenodd" clip-rule="evenodd" d="M10.0509 9.71067C10.0674 9.69609 10.0894 9.68931 10.1112 9.69198L15.5367 10.3542C15.5753 10.3589 15.6043 10.3916 15.6043 10.4304V24.6358C15.6043 24.6584 15.5943 24.6799 15.577 24.6945C15.5596 24.709 15.5367 24.7152 15.5144 24.7114L10.0889 23.7881C10.0519 23.7818 10.0249 23.7499 10.0249 23.7125V9.76811C10.0249 9.74614 10.0343 9.72522 10.0509 9.71067ZM10.1788 9.85478V23.6478L15.4503 24.5449V10.4982L10.1788 9.85478Z" fill="#555F8C"/>
<path d="M3.7774 22.6292L9.16533 23.5401V9.64332L3.7774 8.98682V22.6292Z" fill="#BAC7FF"/>
<path fill-rule="evenodd" clip-rule="evenodd" d="M3.72643 8.92942C3.74293 8.91487 3.76492 8.90806 3.78681 8.91072L9.1747 9.56723C9.21332 9.57195 9.24235 9.60462 9.24235 9.64337V23.5401C9.24235 23.5627 9.23234 23.5841 9.21504 23.5987C9.19773 23.6133 9.17483 23.6195 9.1525 23.6157L3.76458 22.7049C3.72757 22.6986 3.7005 22.6667 3.7005 22.6292V8.98686C3.7005 8.96489 3.70993 8.94397 3.72643 8.92942ZM3.85442 9.0735V22.5645L9.08839 23.4493V9.71127L3.85442 9.0735Z" fill="#555F8C"/>
<path fill-rule="evenodd" clip-rule="evenodd" d="M8.00567 8.13623C8.09069 8.13623 8.15962 8.20495 8.15962 8.28966L8.15959 23.2764C8.15959 23.3612 8.09069 23.4298 8.00567 23.4298C7.92064 23.4298 7.85175 23.3612 7.85175 23.2764V8.28966C7.85175 8.20495 7.92068 8.13623 8.00567 8.13623Z" fill="#555F8C"/>
<path fill-rule="evenodd" clip-rule="evenodd" d="M5.81353 7.84521C5.89855 7.84521 5.96748 7.9139 5.96748 7.99864V23.0283C5.96748 23.113 5.89855 23.1817 5.81353 23.1817C5.7285 23.1817 5.65961 23.113 5.65961 23.0283V7.99864C5.65961 7.9139 5.7285 7.84521 5.81353 7.84521Z" fill="#555F8C"/>
<path fill-rule="evenodd" clip-rule="evenodd" d="M11.2206 8.49365C11.3057 8.49365 11.3746 8.56233 11.3746 8.64705V23.8229C11.3746 23.9076 11.3057 23.9763 11.2206 23.9763C11.1356 23.9763 11.0667 23.9076 11.0667 23.8229V8.64705C11.0667 8.56233 11.1356 8.49365 11.2206 8.49365Z" fill="#555F8C"/>
<path fill-rule="evenodd" clip-rule="evenodd" d="M13.2666 8.71533C13.3516 8.71533 13.4205 8.78401 13.4205 8.86873V24.166C13.4205 24.2507 13.3516 24.3194 13.2666 24.3194C13.1816 24.3194 13.1127 24.2507 13.1127 24.166V8.86873C13.1127 8.78401 13.1816 8.71533 13.2666 8.71533Z" fill="#555F8C"/>
<path d="M15.3417 11.5084L16.3895 11.756V10.8097L15.3417 10.7837V11.5084Z" fill="#BAC7FF"/>
<path fill-rule="evenodd" clip-rule="evenodd" d="M15.288 10.7288C15.3028 10.7144 15.3229 10.7065 15.3436 10.7071L16.3914 10.7331C16.4331 10.7341 16.4664 10.7681 16.4664 10.8098V11.756C16.4664 11.7795 16.4557 11.8016 16.4372 11.8162C16.4188 11.8307 16.3946 11.8361 16.3717 11.8307L15.324 11.5831C15.2892 11.5749 15.2648 11.544 15.2648 11.5085V10.7837C15.2648 10.763 15.2731 10.7433 15.288 10.7288ZM15.4187 10.8624V11.4478L16.3125 11.659V10.8846L15.4187 10.8624Z" fill="#555F8C"/>
<path d="M3.96779 10.0374L2.92004 10.0194V8.91602L3.96779 9.16361V10.0374Z" fill="#BAC7FF"/>
<path fill-rule="evenodd" clip-rule="evenodd" d="M2.87231 8.8559C2.85382 8.87044 2.84308 8.89262 2.84308 8.91607V10.0194C2.84308 10.0613 2.87672 10.0954 2.91871 10.0961L3.96646 10.1142C3.9871 10.1145 4.007 10.1066 4.02175 10.0922C4.03647 10.0777 4.04475 10.058 4.04475 10.0375V9.16366C4.04475 9.12809 4.02024 9.09721 3.98555 9.08901L2.9378 8.84142C2.9149 8.83602 2.89076 8.84135 2.87231 8.8559ZM3.89083 9.22431V9.95942L2.997 9.94406V9.0131L3.89083 9.22431Z" fill="#555F8C"/>
<path d="M3.96779 13.9549L2.92004 13.9369V12.8335L3.96779 13.0811V13.9549Z" fill="#BAC7FF"/>
<path fill-rule="evenodd" clip-rule="evenodd" d="M2.87231 12.7734C2.85382 12.7879 2.84308 12.8101 2.84308 12.8336V13.9369C2.84308 13.9788 2.87672 14.0129 2.91871 14.0136L3.96646 14.0316C3.9871 14.032 4.007 14.0241 4.02175 14.0096C4.03647 13.9952 4.04475 13.9755 4.04475 13.9549V13.0811C4.04475 13.0456 4.02024 13.0147 3.98555 13.0065L2.9378 12.7589C2.9149 12.7535 2.89076 12.7588 2.87231 12.7734ZM3.89083 13.1418V13.8769L2.997 13.8615V12.9306L3.89083 13.1418Z" fill="#555F8C"/>
<path d="M3.96779 17.7708L2.92004 17.7528V16.6494L3.96779 16.897V17.7708Z" fill="#BAC7FF"/>
<path fill-rule="evenodd" clip-rule="evenodd" d="M2.87231 16.5893C2.85382 16.6038 2.84308 16.626 2.84308 16.6494V17.7528C2.84308 17.7947 2.87672 17.8288 2.91871 17.8295L3.96646 17.8475C3.9871 17.8479 4.007 17.84 4.02175 17.8256C4.03647 17.8111 4.04475 17.7914 4.04475 17.7708V16.897C4.04475 16.8615 4.02024 16.8306 3.98555 16.8224L2.9378 16.5748C2.9149 16.5694 2.89076 16.5747 2.87231 16.5893ZM3.89083 16.9577V17.6928L2.997 17.6774V16.7465L3.89083 16.9577Z" fill="#555F8C"/>
<path d="M3.96779 21.6737L2.92004 21.6556V20.5522L3.96779 20.7998V21.6737Z" fill="#BAC7FF"/>
<path fill-rule="evenodd" clip-rule="evenodd" d="M2.87231 20.4921C2.85382 20.5067 2.84308 20.5288 2.84308 20.5523V21.6557C2.84308 21.6975 2.87672 21.7316 2.91871 21.7324L3.96646 21.7504C3.9871 21.7507 4.007 21.7428 4.02175 21.7284C4.03647 21.714 4.04475 21.6943 4.04475 21.6737V20.7999C4.04475 20.7643 4.02024 20.7334 3.98555 20.7252L2.9378 20.4776C2.9149 20.4722 2.89076 20.4776 2.87231 20.4921ZM3.89083 20.8605V21.5957L2.997 21.5803V20.6493L3.89083 20.8605Z" fill="#555F8C"/>
<path d="M15.3417 15.5392L16.3895 15.7868V14.8405L15.3417 14.8145V15.5392Z" fill="#BAC7FF"/>
<path fill-rule="evenodd" clip-rule="evenodd" d="M15.288 14.7596C15.3028 14.7451 15.3229 14.7373 15.3436 14.7378L16.3914 14.7638C16.4331 14.7649 16.4664 14.7989 16.4664 14.8405V15.7868C16.4664 15.8102 16.4557 15.8324 16.4372 15.8469C16.4188 15.8615 16.3946 15.8668 16.3717 15.8614L15.324 15.6138C15.2892 15.6056 15.2648 15.5748 15.2648 15.5392V14.8145C15.2648 14.7938 15.2731 14.774 15.288 14.7596ZM15.4187 14.8931V15.4786L16.3125 15.6898V14.9153L15.4187 14.8931Z" fill="#555F8C"/>
<path d="M15.3417 19.5694L16.3895 19.817V18.8707L15.3417 18.8447V19.5694Z" fill="#BAC7FF"/>
<path fill-rule="evenodd" clip-rule="evenodd" d="M15.288 18.7904C15.3028 18.7759 15.3229 18.768 15.3436 18.7686L16.3914 18.7946C16.4331 18.7956 16.4664 18.8297 16.4664 18.8713V19.8175C16.4664 19.841 16.4557 19.8632 16.4372 19.8777C16.4188 19.8923 16.3946 19.8976 16.3717 19.8922L15.324 19.6446C15.2892 19.6364 15.2648 19.6055 15.2648 19.57V18.8453C15.2648 18.8246 15.2731 18.8048 15.288 18.7904ZM15.4187 18.9239V19.5093L16.3125 19.7205V18.9461L15.4187 18.9239Z" fill="#555F8C"/>
<path d="M15.3417 23.6002L16.3895 23.8221V22.9015L15.3417 22.8755V23.6002Z" fill="#E0E4EC"/>
<path fill-rule="evenodd" clip-rule="evenodd" d="M15.288 22.8206C15.3028 22.8062 15.3229 22.7983 15.3436 22.7989L16.3914 22.8249C16.4331 22.8259 16.4664 22.8599 16.4664 22.9016V23.8222C16.4664 23.8453 16.456 23.8672 16.4379 23.8818C16.4199 23.8963 16.3962 23.902 16.3735 23.8972L15.3257 23.6753C15.2902 23.6677 15.2648 23.6365 15.2648 23.6002V22.8755C15.2648 22.8548 15.2731 22.8351 15.288 22.8206ZM15.4187 22.9542V23.5381L16.3125 23.7275V22.9764L15.4187 22.9542Z" fill="#555F8C"/>
<path fill-rule="evenodd" clip-rule="evenodd" d="M16.3588 9.75427L2.88287 8.16846L2.90092 8.01611L16.3768 9.60192L16.3588 9.75427Z" fill="#555F8C"/>
<path fill-rule="evenodd" clip-rule="evenodd" d="M16.3566 24.8535L2.88202 22.5511L2.90805 22.3999L16.3826 24.7023L16.3566 24.8535Z" fill="#555F8C"/>
<path d="M2.88095 23.3873L6.29592 23.9753V23.0597L2.88092 22.4888L2.88095 23.3873Z" fill="#BAC7FF"/>
<path fill-rule="evenodd" clip-rule="evenodd" d="M2.83126 22.4303C2.84857 22.4157 2.8714 22.4094 2.89372 22.4132L6.30872 22.9841C6.34579 22.9903 6.37293 23.0223 6.37293 23.0598V23.9754C6.37293 23.998 6.3629 24.0195 6.34556 24.034C6.32818 24.0486 6.30525 24.0548 6.28286 24.051L2.8679 23.4629C2.83099 23.4566 2.80405 23.4247 2.80405 23.3874L2.80402 22.4888C2.80402 22.4663 2.81398 22.4448 2.83126 22.4303ZM2.95797 22.5795V23.3228L6.21901 23.8843V23.1247L2.95797 22.5795Z" fill="#555F8C"/>
<path d="M19.4663 1.38525L31.4753 2.50836L16.3692 8.61977L2.89099 7.01813L19.4663 1.38525Z" fill="#BAC7FF"/>
<path fill-rule="evenodd" clip-rule="evenodd" d="M19.4414 1.31221C19.4518 1.30871 19.4626 1.30743 19.4734 1.30844L31.4823 2.43155C31.5177 2.43485 31.5463 2.46178 31.5514 2.49676C31.5564 2.53173 31.5372 2.56569 31.5042 2.57899L16.3983 8.69038C16.3862 8.69527 16.3731 8.69702 16.3602 8.69547L2.88202 7.09387C2.84632 7.08961 2.81834 7.06136 2.81457 7.02572C2.81083 6.99012 2.83228 6.95667 2.86629 6.9451L19.4414 1.31221ZM19.4754 1.46272L3.23623 6.98144L16.3587 8.5408L31.1544 2.55495L19.4754 1.46272Z" fill="#555F8C"/>
</svg>
