<svg width="39" height="39" viewBox="0 0 39 39" fill="none" xmlns="http://www.w3.org/2000/svg">
<circle cx="19.5" cy="19.5" r="19" stroke="#EEECE6"/>
<path d="M15.7498 18.6667H13.3332C12.8665 18.6667 12.6331 18.6667 12.4548 18.7575C12.298 18.8374 12.1706 18.9649 12.0907 19.1217C11.9998 19.2999 11.9998 19.5333 11.9998 20V27M23.2498 18.6667H25.6665C26.1332 18.6667 26.3666 18.6667 26.5448 18.7575C26.7016 18.8374 26.8291 18.9649 26.909 19.1217C26.9998 19.2999 26.9998 19.5333 26.9998 20V27M23.2498 27V14.6667C23.2498 13.7332 23.2498 13.2665 23.0682 12.91C22.9084 12.5964 22.6534 12.3414 22.3398 12.1817C21.9833 12 21.5166 12 20.5832 12H18.4165C17.4831 12 17.0164 12 16.6599 12.1817C16.3462 12.3414 16.0913 12.5964 15.9315 12.91C15.7498 13.2665 15.7498 13.7332 15.7498 14.6667V27M27.8332 27H11.1665M18.6665 15.3333H20.3332M18.6665 18.6667H20.3332M18.6665 22H20.3332" stroke="#3157FF" stroke-width="1.5" stroke-linecap="round" stroke-linejoin="round"/>
</svg>
