<svg width="1246" height="7" viewBox="0 0 1246 7" fill="none" xmlns="http://www.w3.org/2000/svg">
<path d="M-3.26633e-05 3.88675L2.88672 6.7735L5.77347 3.88675L2.88672 0.999998L-3.26633e-05 3.88675ZM1245.77 3.88675L1242.89 0.999998L1240 3.88675L1242.89 6.7735L1245.77 3.88675ZM2.88672 3.88675V4.38675H1242.89V3.88675V3.38675H2.88672V3.88675Z" fill="white"/>
<path d="M-3.26633e-05 2.88675L2.88672 5.7735L5.77347 2.88675L2.88672 -2.14577e-06L-3.26633e-05 2.88675ZM1245.77 2.88675L1242.89 -2.14577e-06L1240 2.88675L1242.89 5.7735L1245.77 2.88675ZM2.88672 2.88675V3.38675H1242.89V2.88675V2.38675H2.88672V2.88675Z" fill="#E6E3DB"/>
</svg>
