<svg width="85" height="100" viewBox="0 0 85 100" fill="none" xmlns="http://www.w3.org/2000/svg">
<path d="M25.73 57.99C25.73 56.33 24.39 54.99 22.73 54.99C21.07 54.99 19.73 56.33 19.73 57.99H25.73ZM19.73 81.02C19.73 82.68 21.07 84.02 22.73 84.02C24.39 84.02 25.73 82.68 25.73 81.02H19.73ZM45.3 57.99C45.3 56.33 43.96 54.99 42.3 54.99C40.64 54.99 39.3 56.33 39.3 57.99H45.3ZM39.3 81.02C39.3 82.68 40.64 84.02 42.3 84.02C43.96 84.02 45.3 82.68 45.3 81.02H39.3ZM63.84 57.99C63.84 56.33 62.5 54.99 60.84 54.99C59.18 54.99 57.84 56.33 57.84 57.99H63.84ZM57.84 81.02C57.84 82.68 59.18 84.02 60.84 84.02C62.5 84.02 63.84 82.68 63.84 81.02H57.84ZM38.1 14.29L35.81 12.34L15.77 35.96L18.06 37.9L20.35 39.84L40.39 16.23L38.1 14.29ZM18.06 37.9V34.9H16.2V40.9H18.06V37.9ZM11.56 42.54V39.54H11V45.54H11.56V42.54ZM3 50.54H0V89H6V50.54H3ZM11 97V100H74V94H11V97ZM82 89H85V50.54H79V89H82ZM74 42.54V39.54H73.2V45.54H74V42.54ZM62.27 42.54V39.54H22.81V45.54H62.27V42.54ZM68.56 37.9V34.9H67.73V40.9H68.56V37.9ZM67.74 37.9V34.9H66.91V40.9H67.74V37.9ZM67.74 37.9L70.01 35.9301L49.57 12.3199L47.3 14.29L45.03 16.25L65.47 39.86L67.74 37.9ZM48.64 9.40002H45.64C45.64 11.31 44.12 12.8101 42.3 12.8101V18.8101C47.49 18.8101 51.64 14.57 51.64 9.40002H48.64ZM42.3 15.8101V12.8101C40.48 12.8101 38.96 11.31 38.96 9.40002H32.96C32.96 14.57 37.11 18.8101 42.3 18.8101V15.8101ZM35.96 9.40002H38.96C38.96 7.50002 40.48 6 42.3 6V0C37.11 0 32.96 4.24002 32.96 9.40002H35.96ZM42.3 3V6C44.12 6 45.64 7.50002 45.64 9.40002H51.64C51.64 4.24002 47.49 0 42.3 0V3ZM62.27 42.54V45.54H73.2V39.54H62.27V42.54ZM11.56 42.54V45.54H22.81V39.54H11.56V42.54ZM22.73 57.99H19.73V81.02H25.73V57.99H22.73ZM42.3 57.99H39.3V81.02H45.3V57.99H42.3ZM60.84 57.99H57.84V81.02H63.84V57.99H60.84ZM62.27 42.54H65.27C65.27 41.63 66.01 40.9 66.91 40.9V34.9C62.69 34.9 59.27 38.32 59.27 42.54H62.27ZM73.2 42.54H76.2C76.2 38.32 72.78 34.9 68.56 34.9V40.9C69.47 40.9 70.2 41.63 70.2 42.54H73.2ZM74 97V100C80.08 100 85 95.08 85 89H79C79 91.76 76.76 94 74 94V97ZM3 89H0C0 95.08 4.93 100 11 100V94C8.24 94 6 91.76 6 89H3ZM11 42.54V39.54C4.93 39.54 0 44.47 0 50.54H6C6 47.78 8.24 45.54 11 45.54V42.54ZM82 50.54H85C85 44.47 80.08 39.54 74 39.54V45.54C76.76 45.54 79 47.78 79 50.54H82ZM22.81 42.54L25.81 42.49C25.74 38.25 22.25 34.9 18.06 34.9V40.9C19.02 40.9 19.8 41.68 19.81 42.59L22.81 42.54ZM16.2 37.9V34.9C11.98 34.9 8.56 38.32 8.56 42.54H14.56C14.56 41.63 15.3 40.9 16.2 40.9V37.9Z" fill="#878484"/>
</svg>
