<svg width="87" height="80" viewBox="0 0 87 80" fill="none" xmlns="http://www.w3.org/2000/svg">
<path d="M70.22 80H11C4.93 80 0 75.07 0 69V33.9C0 27.83 4.93 22.9 11 22.9H16.81V11C16.81 4.93 21.74 0 27.81 0H76C82.07 0 87 4.93 87 11V55.17C87 57.47 86.29 59.6801 84.95 61.5601L72.69 78.71C72.65 78.77 72.6 78.83 72.56 78.89C72.29 79.22 71.97 79.48 71.61 79.67C71.25 79.86 70.84 79.97 70.41 80C70.35 80 70.29 80 70.22 80ZM11 28.9C8.24 28.9 6 31.14 6 33.9V69C6 71.76 8.24 74 11 74H67.22V33.9C67.22 31.14 64.98 28.9 62.22 28.9H11ZM22.81 22.9H62.23C68.3 22.9 73.23 27.83 73.23 33.9V67.65L80.07 58.08C80.67 57.24 81 56.2 81 55.17V11C81 8.24 78.76 6 76 6H27.81C25.05 6 22.81 8.24 22.81 11V22.9ZM53.14 65.2C51.48 65.2 50.14 63.86 50.14 62.2V41.76C50.14 40.1 51.48 38.76 53.14 38.76C54.8 38.76 56.14 40.1 56.14 41.76V62.2C56.14 63.86 54.8 65.2 53.14 65.2ZM18.98 65.2C17.32 65.2 15.98 63.86 15.98 62.2V41.76C15.98 40.1 17.32 38.76 18.98 38.76C20.64 38.76 21.98 40.1 21.98 41.76V62.2C21.98 63.86 20.64 65.2 18.98 65.2ZM36.61 64.92C34.95 64.92 33.61 63.58 33.61 61.92V41.48C33.61 39.82 34.95 38.48 36.61 38.48C38.27 38.48 39.61 39.82 39.61 41.48V61.92C39.61 63.58 38.27 64.92 36.61 64.92Z" fill="#878484"/>
</svg>
