<svg width="87" height="80" viewBox="0 0 87 80" fill="none" xmlns="http://www.w3.org/2000/svg">
<path d="M70.22 79.99H11C4.93 79.99 0 75.06 0 68.99V28.72C0 25.65 1.29 22.7 3.55 20.63C5.81 18.55 8.85 17.51 11.91 17.76L16.81 18.17V11C16.81 4.93 21.74 0 27.81 0H76C82.07 0 87 4.93 87 11V55.17C87 57.48 86.29 59.69 84.95 61.57L72.69 78.72C72.65 78.78 72.6 78.84 72.55 78.9C72.29 79.22 71.97 79.48 71.62 79.66C71.25 79.85 70.84 79.97 70.41 80C70.35 80 70.29 80 70.23 80L70.22 79.99ZM10.99 23.72C9.74001 23.72 8.55 24.18 7.62 25.04C6.58 26 6.00999 27.3 6.00999 28.72V68.99C6.00999 71.75 8.24999 73.99 11.01 73.99H67.23V33.21C67.23 30.6 65.27 28.46 62.67 28.23L19.57 24.41C19.57 24.41 19.54 24.41 19.52 24.41L11.41 23.74C11.27 23.73 11.12 23.72 10.98 23.72H10.99ZM22.81 18.67L63.2 22.25C68.92 22.76 73.23 27.47 73.23 33.21V67.63L80.07 58.06C80.68 57.21 81 56.2 81 55.15V10.98C81 8.21998 78.76 5.97998 76 5.97998H27.81C25.05 5.97998 22.81 8.21998 22.81 10.98V18.66V18.67ZM53.14 65.19C51.48 65.19 50.14 63.85 50.14 62.19V41.75C50.14 40.09 51.48 38.75 53.14 38.75C54.8 38.75 56.14 40.09 56.14 41.75V62.19C56.14 63.85 54.8 65.19 53.14 65.19ZM18.98 65.19C17.32 65.19 15.98 63.85 15.98 62.19V41.75C15.98 40.09 17.32 38.75 18.98 38.75C20.64 38.75 21.98 40.09 21.98 41.75V62.19C21.98 63.85 20.64 65.19 18.98 65.19ZM36.61 64.91C34.95 64.91 33.61 63.57 33.61 61.91V41.47C33.61 39.81 34.95 38.47 36.61 38.47C38.27 38.47 39.61 39.81 39.61 41.47V61.91C39.61 63.57 38.27 64.91 36.61 64.91Z" fill="#878484"/>
</svg>
