<svg width="109" height="84" viewBox="0 0 109 84" fill="none" xmlns="http://www.w3.org/2000/svg">
<path d="M88.6769 84H21.3869C15.3169 84 10.3869 79.07 10.3869 73V40.53L0.726887 29.34C-0.353114 28.09 -0.213116 26.19 1.03688 25.11C2.28688 24.03 4.1869 24.17 5.2669 25.42L14.7669 36.41H27.8869L46.5369 14.6801C45.6569 13.2201 45.1469 11.5101 45.1469 9.68005C45.1469 4.34005 49.4869 0 54.8269 0C60.1669 0 64.5069 4.34005 64.5069 9.68005C64.5069 11.2601 64.1269 12.7499 63.4569 14.0699L83.0069 36.41H95.2069L103.617 25.54C104.627 24.23 106.517 23.99 107.827 25C109.137 26.01 109.377 27.9 108.367 29.21L99.6769 40.4301V72.99C99.6769 79.06 94.7469 83.99 88.6769 83.99V84ZM16.3769 42.41V73C16.3769 75.76 18.6169 78 21.3769 78H88.6669C91.4269 78 93.6669 75.76 93.6669 73V42.41H81.6469C81.6469 42.41 81.6269 42.41 81.6169 42.41H29.2669C29.2669 42.41 29.2469 42.41 29.2269 42.41H16.3669H16.3769ZM35.7869 36.41H75.0269L59.1969 18.3199C57.8869 18.9899 56.3969 19.36 54.8269 19.36C53.4969 19.36 52.2269 19.09 51.0769 18.6L35.7969 36.41H35.7869ZM54.8169 6C52.7869 6 51.1369 7.65005 51.1369 9.68005C51.1369 11.7101 52.7869 13.36 54.8169 13.36C56.8469 13.36 58.4969 11.7101 58.4969 9.68005C58.4969 7.65005 56.8469 6 54.8169 6ZM74.3669 71.5C72.7069 71.5 71.3669 70.16 71.3669 68.5V52C71.3669 50.34 72.7069 49 74.3669 49C76.0269 49 77.3669 50.34 77.3669 52V68.5C77.3669 70.16 76.0269 71.5 74.3669 71.5ZM54.8169 71.5C53.1569 71.5 51.8169 70.16 51.8169 68.5V52C51.8169 50.34 53.1569 49 54.8169 49C56.4769 49 57.8169 50.34 57.8169 52V68.5C57.8169 70.16 56.4769 71.5 54.8169 71.5ZM34.1869 71.5C32.5269 71.5 31.1869 70.16 31.1869 68.5V52C31.1869 50.34 32.5269 49 34.1869 49C35.8469 49 37.1869 50.34 37.1869 52V68.5C37.1869 70.16 35.8469 71.5 34.1869 71.5Z" fill="#878484"/>
</svg>
