<svg width="68" height="72" viewBox="0 0 68 72" fill="none" xmlns="http://www.w3.org/2000/svg">
<path d="M57 72H11C4.93 72 0 67.07 0 61V11C0 4.93 4.93 0 11 0H57C63.07 0 68 4.93 68 11V61C68 67.07 63.07 72 57 72ZM11 6C8.24 6 6 8.24 6 11V61C6 63.76 8.24 66 11 66H57C59.76 66 62 63.76 62 61V11C62 8.24 59.76 6 57 6H11ZM48.87 48.22C47.21 48.22 45.87 46.88 45.87 45.22V25.95C45.87 24.29 47.21 22.95 48.87 22.95C50.53 22.95 51.87 24.29 51.87 25.95V45.22C51.87 46.88 50.53 48.22 48.87 48.22ZM18.63 48.22C16.97 48.22 15.63 46.88 15.63 45.22V25.95C15.63 24.29 16.97 22.95 18.63 22.95C20.29 22.95 21.63 24.29 21.63 25.95V45.22C21.63 46.88 20.29 48.22 18.63 48.22ZM33.75 47.96C32.09 47.96 30.75 46.62 30.75 44.96V25.69C30.75 24.03 32.09 22.69 33.75 22.69C35.41 22.69 36.75 24.03 36.75 25.69V44.96C36.75 46.62 35.41 47.96 33.75 47.96Z" fill="#878484"/>
</svg>
