<svg width="98" height="101" viewBox="0 0 98 101" fill="none" xmlns="http://www.w3.org/2000/svg">
<path d="M89 100.51H9C4.04 100.51 0 96.47 0 91.51V54.98C0 50.02 4.04 45.98 9 45.98H10.66C11.77 43.7 14.12 42.13 16.82 42.13H18.3L40.8 15.94C39.78 14.33 39.19 12.43 39.19 10.39C39.19 4.66001 43.85 0 49.57 0C55.29 0 59.95 4.66001 59.95 10.39C59.95 12.18 59.49 13.87 58.69 15.35L80.33 42.13H80.91C83.61 42.13 85.95 43.7 87.07 45.98H89.01C93.97 45.98 98.01 50.02 98.01 54.98V91.51C98.01 96.47 93.97 100.51 89.01 100.51H89ZM9 51.98C7.35 51.98 6 53.33 6 54.98V91.51C6 93.16 7.35 94.51 9 94.51H89C90.65 94.51 92 93.16 92 91.51V54.98C92 53.33 90.65 51.98 89 51.98H84.76H72.03H9.01001H9ZM28.38 45.98H69.72C70.43 44.54 71.63 43.38 73.1 42.72L54.41 19.59C52.97 20.35 51.32 20.79 49.58 20.79C48.07 20.79 46.63 20.47 45.34 19.88L25.5 42.97C26.75 43.65 27.76 44.71 28.38 45.99V45.98ZM49.57 6.01001C47.15 6.01001 45.19 7.98002 45.19 10.4C45.19 12.82 47.16 14.79 49.57 14.79C51.98 14.79 53.95 12.82 53.95 10.4C53.95 7.98002 51.98 6.01001 49.57 6.01001ZM71.13 86.74H27.5C22.54 86.74 18.5 82.7 18.5 77.74V69.51C18.5 64.55 22.54 60.51 27.5 60.51H71.13C76.09 60.51 80.13 64.55 80.13 69.51V77.74C80.13 82.7 76.09 86.74 71.13 86.74ZM66.18 80.74H71.13C72.78 80.74 74.13 79.39 74.13 77.74V69.51C74.13 67.86 72.78 66.51 71.13 66.51H66.18V80.74ZM52.48 80.74H60.18V66.51H52.48V80.74ZM38.04 80.74H46.48V66.51H38.04V80.74ZM27.5 66.51C25.85 66.51 24.5 67.86 24.5 69.51V77.74C24.5 79.39 25.85 80.74 27.5 80.74H32.04V66.51H27.5Z" fill="#878484"/>
</svg>
