<svg width="85" height="84" viewBox="0 0 85 84" fill="none" xmlns="http://www.w3.org/2000/svg">
<path d="M25.73 53.9C25.73 52.24 24.39 50.9 22.73 50.9C21.07 50.9 19.73 52.24 19.73 53.9H25.73ZM19.81 68.8C19.83 70.46 21.19 71.79 22.84 71.77C24.5 71.75 25.83 70.39 25.81 68.74L19.81 68.8ZM22.73 61.7H19.73V61.73L22.73 61.7ZM45.5 53.9C45.5 52.24 44.16 50.9 42.5 50.9C40.84 50.9 39.5 52.24 39.5 53.9H45.5ZM39.5 68.77C39.5 70.43 40.84 71.77 42.5 71.77C44.16 71.77 45.5 70.43 45.5 68.77H39.5ZM63.84 53.9C63.84 52.24 62.5 50.9 60.84 50.9C59.18 50.9 57.84 52.24 57.84 53.9H63.84ZM57.84 68.77C57.84 70.43 59.18 71.77 60.84 71.77C62.5 71.77 63.84 70.43 63.84 68.77H57.84ZM35.84 12.12L14.35 36.73L16.61 38.7L18.87 40.67L40.36 16.06L35.84 12.12ZM16.61 38.7V35.7H14.71V41.7H16.61V38.7ZM11.56 38.84H11V44.84H11.56V38.84ZM0 49.84V73H6V49.84H0ZM11 84H74V78H11V84ZM85 73V49.84H79V73H85ZM74 38.84H73.2V44.84H74V38.84ZM62.27 41.84V38.84H22.81V44.84H62.27V41.84ZM19.66 38.7V35.7H16.61V41.7H19.66V38.7ZM70.06 35.7H68.06V41.7H70.06V35.7ZM68.06 38.7V35.7H65.42V41.7H68.06V38.7ZM68.06 38.7L70.35 36.77L49.59 12.16L47.3 14.1L45.01 16.03L65.77 40.64L68.06 38.71V38.7ZM45.64 9.28999C45.64 11.09 44.17 12.58 42.3 12.58V18.58C47.44 18.58 51.64 14.44 51.64 9.28999H45.64ZM42.3 12.58C40.43 12.58 38.96 11.09 38.96 9.28999H32.96C32.96 14.44 37.16 18.58 42.3 18.58V12.58ZM38.96 9.28999C38.96 7.49999 40.43 6 42.3 6V0C37.16 0 32.96 4.13999 32.96 9.28999H38.96ZM42.3 6C44.17 6 45.64 7.48999 45.64 9.28999H51.64C51.64 4.13999 47.44 0 42.3 0V6ZM62.27 41.84V44.84H73.2V38.84H62.27V41.84ZM11.56 44.84H22.81V38.84H11.56V44.84ZM19.73 53.9V61.7H25.73V53.9H19.73ZM22.73 61.7L19.73 61.73L19.81 68.8L25.81 68.74L25.73 61.66L22.73 61.69V61.7ZM39.5 53.9V68.77H45.5V53.9H39.5ZM57.84 53.9V68.77H63.84V53.9H57.84ZM62.27 41.84H65.27C65.27 41.76 65.34 41.69 65.42 41.69V35.69C62.02 35.69 59.27 38.44 59.27 41.84H62.27ZM73.2 41.84H76.2C76.2 38.44 73.45 35.69 70.05 35.69V41.69C70.13 41.69 70.2 41.76 70.2 41.84H73.2ZM74 84C80.08 84 85 79.08 85 73H79C79 75.76 76.76 78 74 78V84ZM0 73C0 79.08 4.93 84 11 84V78C8.24 78 6 75.76 6 73H0ZM11 38.84C4.93 38.84 0 43.77 0 49.84H6C6 47.08 8.24 44.84 11 44.84V38.84ZM85 49.84C85 43.77 80.08 38.84 74 38.84V44.84C76.76 44.84 79 47.08 79 49.84H85ZM25.81 41.84C25.81 38.44 23.06 35.69 19.66 35.69V41.69C19.74 41.69 19.81 41.76 19.81 41.84H25.81ZM14.71 38.7V35.7C11.31 35.7 8.56 38.45 8.56 41.85H14.56C14.56 41.77 14.63 41.7 14.71 41.7V38.7Z" fill="#878484"/>
</svg>
