<svg width="99" height="101" viewBox="0 0 99 101" fill="none" xmlns="http://www.w3.org/2000/svg">
<path d="M9 100.51C4.04 100.51 0 96.47 0 91.51V54.98C0 50.02 4.04 45.98 9 45.98H10.66C11.77 43.7 14.11 42.13 16.82 42.13H18.3L40.8 15.9399C39.78 14.3299 39.19 12.43 39.19 10.39C39.19 4.66001 43.85 0 49.57 0C55.29 0 59.95 4.66001 59.95 10.39C59.95 12.18 59.49 13.87 58.69 15.35L80.33 42.13H80.91C83.61 42.13 85.95 43.7 87.07 45.98H89.01C93.97 45.98 98.01 50.02 98.01 54.98V91.51C98.01 96.47 93.97 100.51 89.01 100.51H9ZM9 51.98C7.35 51.98 6 53.32 6 54.98V91.51C6 93.16 7.35 94.51 9 94.51H89C90.65 94.51 92 93.16 92 91.51V54.98C92 53.33 90.65 51.98 89 51.98H84.76H72.03H9ZM28.38 45.98H69.72C70.43 44.54 71.63 43.38 73.1 42.72L54.41 19.59C52.97 20.35 51.32 20.79 49.58 20.79C48.07 20.79 46.63 20.47 45.34 19.88L25.5 42.97C26.75 43.65 27.76 44.71 28.38 45.99V45.98ZM49.58 6.01001C47.16 6.01001 45.2 7.98002 45.2 10.4C45.2 12.82 47.17 14.79 49.58 14.79C51.99 14.79 53.96 12.82 53.96 10.4C53.96 7.98002 51.99 6.01001 49.58 6.01001Z" fill="#878484"/>
<path d="M69.6198 63.0098C75.5798 63.0098 80.9998 67.4098 80.9998 73.5098C80.9998 79.6098 75.5798 84.0098 69.6198 84.0098H29.3898C23.4298 84.0098 18.0098 79.6098 18.0098 73.5098C18.0098 67.4098 23.4298 63.0098 29.3898 63.0098H69.6198Z" fill="#878484"/>
<path d="M69.6198 87.0098H29.3898C21.4598 87.0098 15.0098 80.9498 15.0098 73.5098C15.0098 66.0698 21.4598 60.0098 29.3898 60.0098H69.6198C77.5498 60.0098 83.9998 66.0698 83.9998 73.5098C83.9998 80.9498 77.5498 87.0098 69.6198 87.0098ZM29.3798 66.0098C25.3498 66.0098 20.9998 68.8798 20.9998 73.5098C20.9998 78.1398 25.3498 81.0098 29.3798 81.0098H69.6097C73.6397 81.0098 77.9897 78.1398 77.9897 73.5098C77.9897 68.8798 73.6397 66.0098 69.6097 66.0098H29.3798Z" fill="#878484"/>
</svg>
