<svg width="91" height="76" viewBox="0 0 91 76" fill="none" xmlns="http://www.w3.org/2000/svg">
<path d="M73.54 76H11C4.93 76 0 71.07 0 65V32.66C0 26.59 4.93 21.66 11 21.66H17.64V11C17.64 4.93 22.57 0 28.64 0H80C86.07 0 91 4.93 91 11V51.99C91 54.45 90.16 56.8799 88.62 58.8199L75.91 74.84C75.91 74.84 75.85 74.92 75.81 74.96C75.54 75.28 75.21 75.53 74.85 75.7C74.49 75.88 74.09 75.98 73.66 76C73.62 76 73.58 76 73.53 76H73.54ZM11 27.66C8.24 27.66 6 29.9 6 32.66V65C6 67.76 8.24 70 11 70H70.54V32.66C70.54 29.9 68.3 27.66 65.54 27.66H11ZM23.64 21.66H65.55C71.62 21.66 76.55 26.59 76.55 32.66V64.39L83.92 55.1C84.62 54.22 85 53.11 85 51.99V11C85 8.24 82.76 6 80 6H28.64C25.88 6 23.64 8.24 23.64 11V21.66ZM59.67 60C58.01 60 56.67 58.66 56.67 57V39.5C56.67 37.84 58.01 36.5 59.67 36.5C61.33 36.5 62.67 37.84 62.67 39.5V57C62.67 58.66 61.33 60 59.67 60ZM45.63 60C43.97 60 42.63 58.66 42.63 57V39.5C42.63 37.84 43.97 36.5 45.63 36.5C47.29 36.5 48.63 37.84 48.63 39.5V57C48.63 58.66 47.29 60 45.63 60ZM31.63 60C29.97 60 28.63 58.66 28.63 57V39.5C28.63 37.84 29.97 36.5 31.63 36.5C33.29 36.5 34.63 37.84 34.63 39.5V57C34.63 58.66 33.29 60 31.63 60ZM16.52 60C14.86 60 13.52 58.66 13.52 57V39.5C13.52 37.84 14.86 36.5 16.52 36.5C18.18 36.5 19.52 37.84 19.52 39.5V57C19.52 58.66 18.18 60 16.52 60Z" fill="#878484"/>
</svg>
