<svg width="91" height="76" viewBox="0 0 91 76" fill="none" xmlns="http://www.w3.org/2000/svg">
<path d="M73.54 76H11C4.93 76 0 71.07 0 65V27.73C0 24.68 1.27999 21.74 3.51999 19.67C5.75999 17.6 8.78001 16.54 11.82 16.76L17.63 17.2V11C17.63 4.93 22.56 0 28.63 0H79.99C86.06 0 90.99 4.93 90.99 11V51.99C90.99 54.46 90.14 56.89 88.61 58.83L75.91 74.85C75.91 74.85 75.84 74.93 75.81 74.97C75.54 75.29 75.21 75.53 74.85 75.7C74.49 75.88 74.09 75.98 73.66 76C73.62 76 73.58 76 73.53 76H73.54ZM10.99 22.73C9.72999 22.73 8.54001 23.2 7.60001 24.07C6.57001 25.03 6 26.33 6 27.73V65C6 67.76 8.24 70 11 70H70.54V32.05C70.54 29.46 68.52 27.27 65.94 27.07L20.42 23.43C20.42 23.43 20.39 23.43 20.38 23.43L11.37 22.76C11.24 22.76 11.11 22.75 10.99 22.75V22.73ZM23.64 17.66L66.42 21.08C72.1 21.53 76.54 26.35 76.54 32.05V64.39L83.91 55.09C84.61 54.21 84.99 53.11 84.99 51.98V10.99C84.99 8.22999 82.75 5.98999 79.99 5.98999H28.63C25.87 5.98999 23.63 8.22999 23.63 10.99V17.65L23.64 17.66ZM59.67 60C58.01 60 56.67 58.66 56.67 57V39.5C56.67 37.84 58.01 36.5 59.67 36.5C61.33 36.5 62.67 37.84 62.67 39.5V57C62.67 58.66 61.33 60 59.67 60ZM45.63 60C43.97 60 42.63 58.66 42.63 57V39.5C42.63 37.84 43.97 36.5 45.63 36.5C47.29 36.5 48.63 37.84 48.63 39.5V57C48.63 58.66 47.29 60 45.63 60ZM31.63 60C29.97 60 28.63 58.66 28.63 57V39.5C28.63 37.84 29.97 36.5 31.63 36.5C33.29 36.5 34.63 37.84 34.63 39.5V57C34.63 58.66 33.29 60 31.63 60ZM16.52 60C14.86 60 13.52 58.66 13.52 57V39.5C13.52 37.84 14.86 36.5 16.52 36.5C18.18 36.5 19.52 37.84 19.52 39.5V57C19.52 58.66 18.18 60 16.52 60Z" fill="#878484"/>
</svg>
