<svg width="99" height="83" viewBox="0 0 99 83" fill="none" xmlns="http://www.w3.org/2000/svg">
<path d="M29.42 53.29C29.48 49.4 23.36 49.4 23.42 53.29H29.42ZM23.5 68C23.49 71.89 29.6 71.82 29.5 67.93C28.01 67.95 25 67.98 23.5 68ZM26.42 60.98H23.42V61.01L26.42 60.98ZM45.45 53.29C45.51 49.4 39.39 49.4 39.45 53.29H45.45ZM39.45 67.97C39.39 71.86 45.51 71.86 45.45 67.97H39.45ZM61.36 53.29C61.42 49.4 55.3 49.4 55.36 53.29H61.36ZM55.36 67.97C55.3 71.86 61.42 71.86 61.36 67.97H55.36ZM76.75 53.29C76.81 49.4 70.69 49.4 70.75 53.29H76.75ZM70.75 67.97C70.69 71.86 76.81 71.86 76.75 67.97H70.75ZM44.16 13.95L41.9 11.97L20.66 36.26C21.79 37.24 24.05 39.22 25.18 40.21L46.42 15.92L44.16 13.95ZM22.92 38.24V35.24H21.04V41.24H22.92V38.24ZM17.93 38.34H11V44.34H17.93V38.34ZM0 49.34V72H6V49.34H0ZM11 83H88V77H11V83ZM99 72V49.34H93V72H99ZM88 38.34H78.84V44.34H88V38.34ZM68.03 41.34V38.34H29.04V44.34H68.03V41.34ZM25.94 35.24H22.92V41.24H25.94V35.24ZM75.73 35.24H73.75V41.24H75.73V35.24ZM73.75 38.24V35.24H71.14V41.24H73.75V38.24ZM73.75 38.24L76.04 36.31L55.52 12.02C54.38 12.98 52.08 14.93 50.94 15.89L71.46 40.18L73.75 38.24ZM51.57 9.21002C51.57 10.96 50.13 12.42 48.31 12.42V18.42C53.4 18.42 57.57 14.32 57.57 9.21002H51.57ZM48.3 12.42C46.47 12.42 45.04 10.96 45.04 9.21002H39.04C39.04 14.32 43.21 18.42 48.3 18.42V12.42ZM45.04 9.21002C45.04 7.46002 46.48 6 48.3 6V0C43.21 0 39.04 4.10002 39.04 9.21002H45.04ZM48.3 6C50.13 6 51.56 7.46002 51.56 9.21002H57.56C57.56 4.10002 53.39 0 48.3 0V6ZM68.03 41.34V44.34H78.83V38.34H68.03V41.34ZM17.93 44.34H29.05V38.34H17.93V44.34ZM23.42 53.29V60.99H29.42V53.29H23.42ZM26.42 60.98L23.42 61.01L23.5 67.99C24.99 67.97 28 67.94 29.5 67.92L29.42 60.94L26.42 60.97V60.98ZM39.45 53.29V67.97H45.45V53.29H39.45ZM55.36 53.29V67.97H61.36V53.29H55.36ZM70.75 53.29V67.97H76.75V53.29H70.75ZM68.03 41.34H71.03C71.03 41.28 71.08 41.23 71.14 41.23V35.23C67.77 35.23 65.03 37.96 65.03 41.34H68.03ZM78.84 41.34H81.84C81.84 37.97 79.11 35.23 75.73 35.23V41.23C75.79 41.23 75.84 41.28 75.84 41.34H78.84ZM88 83C94.08 83 99 78.08 99 72H93C93 74.76 90.76 77 88 77V83ZM0 72C0 78.08 4.92 83 11 83V77C8.24 77 6 74.76 6 72H0ZM11 38.34C4.92 38.34 0 43.27 0 49.34H6C6 46.58 8.24 44.34 11 44.34V38.34ZM99 49.34C99 43.27 94.08 38.34 88 38.34V44.34C90.76 44.34 93 46.58 93 49.34H99ZM32.04 41.34C32.04 37.97 29.31 35.23 25.93 35.23V41.23C25.99 41.23 26.04 41.28 26.04 41.34H32.04ZM21.03 35.24C17.66 35.24 14.92 37.97 14.92 41.35H20.92C20.92 41.29 20.97 41.24 21.03 41.24V35.24Z" fill="#878484"/>
</svg>
