<svg width="112" height="88" viewBox="0 0 112 88" fill="none" xmlns="http://www.w3.org/2000/svg">
<path d="M92.5356 87.98H20.1656C14.0956 87.98 9.16564 83.05 9.16564 76.98V41.64L0.545649 29.39C-0.404351 28.04 -0.0843099 26.16 1.27569 25.21C2.63569 24.25 4.50568 24.5799 5.45568 25.9399L13.7256 37.7H28.4557L48.3257 15.4C47.3757 13.86 46.8357 12.04 46.8357 10.11C46.8357 4.52999 51.3657 0 56.9257 0C62.4857 0 67.0157 4.53999 67.0157 10.11C67.0157 11.8 66.5957 13.39 65.8657 14.79L86.3757 37.71H98.9156L106.486 26.0499C107.386 24.6599 109.246 24.2599 110.636 25.1699C112.026 26.0699 112.416 27.9299 111.516 29.3199L103.536 41.61V77.01C103.536 83.08 98.6056 88.01 92.5356 88.01V87.98ZM15.1656 43.6899V76.98C15.1656 79.74 17.4056 81.98 20.1656 81.98H92.5356C95.2956 81.98 97.5356 79.74 97.5356 76.98V43.6899H15.1656ZM36.4756 37.6899H78.3057L61.6157 19.04C60.2057 19.79 58.6056 20.21 56.9056 20.21C55.4556 20.21 54.0657 19.9 52.8157 19.34L36.4656 37.6899H36.4756ZM56.9156 5.97998C54.6556 5.97998 52.8257 7.81997 52.8257 10.09C52.8257 12.36 54.6556 14.21 56.9156 14.21C59.1756 14.21 61.0057 12.36 61.0057 10.09C61.0057 7.81997 59.1756 5.97998 56.9156 5.97998ZM83.9957 74.48C82.3357 74.48 80.9957 73.14 80.9957 71.48V53.98C80.9957 52.32 82.3357 50.98 83.9957 50.98C85.6557 50.98 86.9957 52.32 86.9957 53.98V71.48C86.9957 73.14 85.6557 74.48 83.9957 74.48ZM65.5557 74.48C63.8957 74.48 62.5557 73.14 62.5557 71.48V53.98C62.5557 52.32 63.8957 50.98 65.5557 50.98C67.2157 50.98 68.5557 52.32 68.5557 53.98V71.48C68.5557 73.14 67.2157 74.48 65.5557 74.48ZM47.2057 74.48C45.5457 74.48 44.2057 73.14 44.2057 71.48V53.98C44.2057 52.32 45.5457 50.98 47.2057 50.98C48.8657 50.98 50.2057 52.32 50.2057 53.98V71.48C50.2057 73.14 48.8657 74.48 47.2057 74.48ZM28.4156 74.48C26.7556 74.48 25.4156 73.14 25.4156 71.48V53.98C25.4156 52.32 26.7556 50.98 28.4156 50.98C30.0756 50.98 31.4156 52.32 31.4156 53.98V71.48C31.4156 73.14 30.0756 74.48 28.4156 74.48Z" fill="#878484"/>
</svg>
