<svg width="68" height="84" viewBox="0 0 68 84" fill="none" xmlns="http://www.w3.org/2000/svg">
<path d="M57 84H11C4.93 84 0 79.07 0 73V11C0 4.93 4.93 0 11 0H57C63.07 0 68 4.93 68 11V73C68 79.07 63.07 84 57 84ZM11 6C8.24 6 6 8.24 6 11V73C6 75.76 8.24 78 11 78H57C59.76 78 62 75.76 62 73V11C62 8.24 59.76 6 57 6H11ZM48.87 55.9C47.21 55.9 45.87 54.56 45.87 52.9V30.13C45.87 28.47 47.21 27.13 48.87 27.13C50.53 27.13 51.87 28.47 51.87 30.13V52.9C51.87 54.56 50.53 55.9 48.87 55.9ZM18.63 55.9C16.97 55.9 15.63 54.56 15.63 52.9V30.13C15.63 28.47 16.97 27.13 18.63 27.13C20.29 27.13 21.63 28.47 21.63 30.13V52.9C21.63 54.56 20.29 55.9 18.63 55.9ZM33.75 55.59C32.09 55.59 30.75 54.25 30.75 52.59V29.82C30.75 28.16 32.09 26.82 33.75 26.82C35.41 26.82 36.75 28.16 36.75 29.82V52.59C36.75 54.25 35.41 55.59 33.75 55.59Z" fill="#878484"/>
</svg>
