<svg width="98" height="104" viewBox="0 0 98 104" fill="none" xmlns="http://www.w3.org/2000/svg">
<path d="M89 104H9C4.04 104 0 99.96 0 95V54.35C0 49.39 4.04 45.35 9 45.35H10.66C11.77 43.07 14.12 41.5 16.82 41.5H18.29L40 15.95C38.98 14.34 38.39 12.43 38.39 10.39C38.39 4.66001 43.05 0 48.77 0C54.49 0 59.15 4.66001 59.15 10.39C59.15 12.17 58.7 13.84 57.91 15.3L80.28 41.5H80.91C83.61 41.5 85.95 43.07 87.07 45.35H89.01C93.97 45.35 98.01 49.39 98.01 54.35V95C98.01 99.96 93.97 104 89.01 104H89ZM9 51.35C7.35 51.35 6 52.7 6 54.35V95C6 96.65 7.35 98 9 98H89C90.65 98 92 96.65 92 95V54.35C92 52.7 90.65 51.35 89 51.35H84.76H72.03H9.00999H9ZM28.38 45.35H69.72C70.4 43.95 71.55 42.82 72.96 42.15L53.66 19.55C52.2 20.33 50.54 20.78 48.77 20.78C47.26 20.78 45.83 20.46 44.54 19.88L25.47 42.3199C26.73 42.9999 27.75 44.06 28.38 45.35ZM48.77 6C46.35 6 44.39 7.97001 44.39 10.39C44.39 12.81 46.36 14.78 48.77 14.78C51.18 14.78 53.15 12.81 53.15 10.39C53.15 7.97001 51.18 6 48.77 6ZM71.13 88H27.5C22.54 88 18.5 83.96 18.5 79V70.77C18.5 65.81 22.54 61.77 27.5 61.77H71.13C76.09 61.77 80.13 65.81 80.13 70.77V79C80.13 83.96 76.09 88 71.13 88ZM66.18 82H71.13C72.78 82 74.13 80.65 74.13 79V70.77C74.13 69.12 72.78 67.77 71.13 67.77H66.18V82ZM52.48 82H60.18V67.77H52.48V82ZM38.04 82H46.48V67.77H38.04V82ZM27.5 67.77C25.85 67.77 24.5 69.12 24.5 70.77V79C24.5 80.65 25.85 82 27.5 82H32.04V67.77H27.5Z" fill="#878484"/>
</svg>
