<svg width="88" height="83" viewBox="0 0 88 83" fill="none" xmlns="http://www.w3.org/2000/svg">
<path d="M24.92 53.29C24.92 51.63 23.58 50.29 21.92 50.29C20.26 50.29 18.92 51.63 18.92 53.29H24.92ZM19 68C19.02 69.66 20.38 70.98 22.03 70.97C23.69 70.95 25.02 69.59 25 67.94L19 68ZM21.92 60.98H18.92V61.01L21.92 60.98ZM40.95 53.29C40.95 51.63 39.61 50.29 37.95 50.29C36.29 50.29 34.95 51.63 34.95 53.29H40.95ZM34.95 67.97C34.95 69.63 36.29 70.97 37.95 70.97C39.61 70.97 40.95 69.63 40.95 67.97H34.95ZM56.86 53.29C56.86 51.63 55.52 50.29 53.86 50.29C52.2 50.29 50.86 51.63 50.86 53.29H56.86ZM50.86 67.97C50.86 69.63 52.2 70.97 53.86 70.97C55.52 70.97 56.86 69.63 56.86 67.97H50.86ZM72.25 53.29C72.25 51.63 70.91 50.29 69.25 50.29C67.59 50.29 66.25 51.63 66.25 53.29H72.25ZM66.25 67.97C66.25 69.63 67.59 70.97 69.25 70.97C70.91 70.97 72.25 69.63 72.25 67.97H66.25ZM39.66 13.95L37.4 11.97L16.16 36.26L18.42 38.23L20.68 40.21L41.92 15.92L39.66 13.95ZM18.42 38.24V35.24H16.54V41.24H18.42V38.24ZM13.43 41.35V38.35H11V44.35H13.43V41.35ZM0 49.35V72H6V49.35H0ZM11 83H77V77H11V83ZM88 72V49.35H82V72H88ZM77 38.35H74.34V44.35H77V38.35ZM63.53 41.35V38.35H24.54V44.35H63.53V41.35ZM21.44 38.24V35.24H18.42V41.24H21.44V38.24ZM71.23 38.24V35.24H69.25V41.24H71.23V38.24ZM69.25 38.24V35.24H66.64V41.24H69.25V38.24ZM69.25 38.24L71.54 36.31L51.02 12.02L48.73 13.96L46.44 15.89L66.96 40.18L69.25 38.24ZM47.07 9.21001C47.07 10.96 45.63 12.42 43.81 12.42V18.42C48.9 18.42 53.07 14.32 53.07 9.21001H47.07ZM43.8 12.42C41.97 12.42 40.54 10.96 40.54 9.21001H34.54C34.54 14.32 38.71 18.42 43.8 18.42V12.42ZM40.54 9.21001C40.54 7.46001 41.98 6 43.8 6V0C38.71 0 34.54 4.10001 34.54 9.21001H40.54ZM43.8 6C45.63 6 47.06 7.46001 47.06 9.21001H53.06C53.06 4.10001 48.89 0 43.8 0V6ZM63.53 41.35V44.35H74.33V38.35H63.53V41.35ZM13.43 41.35V44.35H24.55V38.35H13.43V41.35ZM18.92 53.29V60.99H24.92V53.29H18.92ZM21.92 60.98L18.92 61.01L19 67.99L25 67.93L24.92 60.95L21.92 60.98ZM34.95 53.29V67.97H40.95V53.29H34.95ZM50.86 53.29V67.97H56.86V53.29H50.86ZM66.25 53.29V67.97H72.25V53.29H66.25ZM63.53 41.35H66.53C66.53 41.29 66.58 41.24 66.64 41.24V35.24C63.27 35.24 60.53 37.97 60.53 41.35H63.53ZM74.34 41.35H77.34C77.34 37.98 74.61 35.24 71.23 35.24V41.24C71.29 41.24 71.34 41.29 71.34 41.35H74.34ZM77 83C83.08 83 88 78.08 88 72H82C82 74.76 79.76 77 77 77V83ZM0 72C0 78.08 4.92 83 11 83V77C8.24 77 6 74.76 6 72H0ZM11 38.35C4.92 38.35 0 43.27 0 49.35H6C6 46.59 8.24 44.35 11 44.35V38.35ZM88 49.35C88 43.27 83.08 38.35 77 38.35V44.35C79.76 44.35 82 46.59 82 49.35H88ZM27.54 41.35C27.54 37.98 24.81 35.24 21.43 35.24V41.24C21.49 41.24 21.54 41.29 21.54 41.35H27.54ZM16.53 35.24C13.16 35.24 10.42 37.97 10.42 41.35H16.42C16.42 41.29 16.47 41.24 16.53 41.24V35.24Z" fill="#878484"/>
</svg>
