<svg width="99" height="93" viewBox="0 0 99 93" fill="none" xmlns="http://www.w3.org/2000/svg">
<path d="M29.42 59.82C29.42 58.16 28.08 56.82 26.42 56.82C24.76 56.82 23.42 58.16 23.42 59.82H29.42ZM23.5 76.43C23.52 78.09 24.87 79.42 26.53 79.4C28.19 79.38 29.52 78.03 29.5 76.37L23.5 76.43ZM26.42 68.51H23.42V68.54L26.42 68.51ZM45.45 59.82C45.45 58.16 44.11 56.82 42.45 56.82C40.79 56.82 39.45 58.16 39.45 59.82H45.45ZM39.45 76.4C39.45 78.06 40.79 79.4 42.45 79.4C44.11 79.4 45.45 78.06 45.45 76.4H39.45ZM61.36 59.82C61.36 58.16 60.02 56.82 58.36 56.82C56.7 56.82 55.36 58.16 55.36 59.82H61.36ZM55.36 76.4C55.36 78.06 56.7 79.4 58.36 79.4C60.02 79.4 61.36 78.06 61.36 76.4H55.36ZM76.75 59.82C76.75 58.16 75.41 56.82 73.75 56.82C72.09 56.82 70.75 58.16 70.75 59.82H76.75ZM70.75 76.4C70.75 78.06 72.09 79.4 73.75 79.4C75.41 79.4 76.75 78.06 76.75 76.4H70.75ZM44.16 15.37L41.79 13.53L20.55 40.98L22.92 42.82L25.29 44.65L46.53 17.2L44.16 15.36V15.37ZM22.92 42.81V39.81H21.44V45.81H22.92V42.81ZM17.93 43.33H11V49.33H17.93V43.33ZM0 54.33V82H6V54.33H0ZM11 93H88V87H11V93ZM99 82V54.33H93V82H99ZM88 43.33H78.84V49.33H88V43.33ZM68.03 46.33V43.33H29.04V49.33H68.03V46.33ZM25.53 39.81H22.92V45.81H25.53V39.81ZM75.33 39.81H73.76V45.81H75.33V39.81ZM73.75 42.81V39.81H71.54V45.81H73.75V42.81ZM73.75 42.81L76.15 41.01L55.63 13.56L50.83 17.16L71.35 44.61L73.75 42.81ZM51.57 10.02C51.57 12.57 49.8 14.04 48.31 14.04V20.04C53.74 20.04 57.57 15.23 57.57 10.02H51.57ZM48.3 14.03C46.81 14.03 45.04 12.56 45.04 10.01H39.04C39.04 15.21 42.88 20.03 48.3 20.03V14.03ZM45.04 10.02C45.04 7.47 46.81 6 48.3 6V0C42.87 0 39.04 4.81 39.04 10.02H45.04ZM48.3 6C49.79 6 51.56 7.47 51.56 10.02H57.56C57.56 4.82 53.72 0 48.3 0V6ZM68.03 46.33V49.33H78.83V43.33H68.03V46.33ZM17.93 49.33H29.05V43.33H17.93V49.33ZM23.42 59.82V68.52H29.42V59.82H23.42ZM26.42 68.51L23.42 68.54L23.5 76.43L29.5 76.37L29.42 68.48L26.42 68.51ZM39.45 59.82V76.41H45.45V59.82H39.45ZM55.36 59.82V76.41H61.36V59.82H55.36ZM70.75 59.82V76.41H76.75V59.82H70.75ZM68.03 46.33H71.03C71.03 46.05 71.26 45.82 71.54 45.82V39.82C67.94 39.82 65.03 42.74 65.03 46.33H68.03ZM78.84 46.33H81.84C81.84 42.73 78.92 39.82 75.33 39.82V45.82C75.61 45.82 75.84 46.05 75.84 46.33H78.84ZM88 93C94.08 93 99 88.08 99 82H93C93 84.76 90.76 87 88 87V93ZM0 82C0 88.08 4.92 93 11 93V87C8.24 87 6 84.76 6 82H0ZM11 43.33C4.92 43.33 0 48.25 0 54.33H6C6 51.57 8.24 49.33 11 49.33V43.33ZM99 54.33C99 48.25 94.08 43.33 88 43.33V49.33C90.76 49.33 93 51.57 93 54.33H99ZM32.04 46.33C32.04 42.73 29.13 39.82 25.53 39.82V45.82C25.81 45.82 26.04 46.05 26.04 46.33H32.04ZM21.44 42.81V39.81C17.84 39.81 14.93 42.73 14.93 46.32H20.93C20.93 46.04 21.16 45.81 21.44 45.81V42.81Z" fill="#878484"/>
</svg>
