<svg width="93" height="87" viewBox="0 0 93 87" fill="none" xmlns="http://www.w3.org/2000/svg">
<path d="M82 87H11C4.93 87 0 82.07 0 76V46.75C0 40.68 4.93 35.75 11 35.75H15.77C16.91 32.91 19.61 30.8699 22.81 30.6899L38.69 13.02C37.99 11.76 37.6 10.32 37.6 8.79004C37.6 3.94004 41.56 0 46.42 0C51.28 0 55.24 3.94004 55.24 8.79004C55.24 10.12 54.94 11.39 54.4 12.53L71.14 31.5699C73.8 31.7699 76.06 33.43 77.13 35.75H82C88.07 35.75 93 40.68 93 46.75V76C93 82.07 88.07 87 82 87ZM11 41.75C8.24 41.75 6 43.99 6 46.75V76C6 78.76 8.24 81 11 81H82C84.76 81 87 78.76 87 76V46.75C87 43.99 84.76 41.75 82 41.75H11ZM31.15 35.75H62.4C62.88 34.71 63.6 33.8 64.49 33.1L50.13 16.77C48.03 17.74 45.36 17.83 43.2 16.98L29.13 32.63C30.05 33.47 30.75 34.55 31.15 35.75ZM46.42 6C44.87 6 43.6 7.25004 43.6 8.79004C43.6 10.33 44.87 11.58 46.42 11.58C47.97 11.58 49.24 10.33 49.24 8.79004C49.24 7.25004 47.97 6 46.42 6ZM74.79 73C73.13 73 71.79 71.66 71.79 70V51.5C71.79 49.84 73.13 48.5 74.79 48.5C76.45 48.5 77.79 49.84 77.79 51.5V70C77.79 71.66 76.45 73 74.79 73ZM60.29 73C58.63 73 57.29 71.66 57.29 70V51.5C57.29 49.84 58.63 48.5 60.29 48.5C61.95 48.5 63.29 49.84 63.29 51.5V70C63.29 71.66 61.95 73 60.29 73ZM46.42 73C44.76 73 43.42 71.66 43.42 70V51.5C43.42 49.84 44.76 48.5 46.42 48.5C48.08 48.5 49.42 49.84 49.42 51.5V70C49.42 71.66 48.08 73 46.42 73ZM32.32 73C30.66 73 29.32 71.66 29.32 70V51.5C29.32 49.84 30.66 48.5 32.32 48.5C33.98 48.5 35.32 49.84 35.32 51.5V70C35.32 71.66 33.98 73 32.32 73ZM18.19 73C16.53 73 15.19 71.66 15.19 70V51.5C15.19 49.84 16.53 48.5 18.19 48.5C19.85 48.5 21.19 49.84 21.19 51.5V70C21.19 71.66 19.85 73 18.19 73Z" fill="#878484"/>
</svg>
