<svg width="27" height="22" viewBox="0 0 27 22" fill="none" xmlns="http://www.w3.org/2000/svg">
<path d="M15.9241 1.13086V12.3567L2.36548 19.0596V5.71925L15.9241 1.13086Z" fill="white"/>
<path fill-rule="evenodd" clip-rule="evenodd" d="M15.9607 1.08003C15.9772 1.09177 15.9871 1.11069 15.9871 1.13086V12.3567C15.9871 12.3804 15.9736 12.4021 15.9521 12.4127L2.39355 19.1156C2.37404 19.1252 2.35087 19.1242 2.33233 19.1128C2.31379 19.1014 2.30249 19.0813 2.30249 19.0596V5.71927C2.30249 5.69251 2.31965 5.66875 2.34514 5.66012L15.9039 1.0717C15.9229 1.0652 15.9441 1.0683 15.9607 1.08003ZM2.42845 5.76399V18.9587L15.8612 12.318V1.2182L2.42845 5.76399Z" fill="#232323"/>
<path d="M25.7525 13.6905L15.9242 12.3555L2.34961 19.0753L5.1081 19.5226L6.23912 18.9553L10.6609 19.7293V20.4307L13.3835 20.8642L25.7525 13.6905Z" fill="white"/>
<path fill-rule="evenodd" clip-rule="evenodd" d="M15.8961 12.2995C15.9074 12.2939 15.9201 12.2918 15.9328 12.2935L25.761 13.6286C25.7875 13.6322 25.809 13.6522 25.8142 13.6783C25.8194 13.7045 25.8073 13.731 25.7842 13.7445L13.4153 20.9182C13.4027 20.9255 13.3879 20.9282 13.3735 20.9259L10.6509 20.4924C10.6204 20.4875 10.5979 20.4614 10.5979 20.4307V19.7817L6.24879 19.0204L5.13647 19.5783C5.12457 19.5843 5.11107 19.5864 5.09793 19.5842L2.33944 19.137C2.31246 19.1327 2.29142 19.1115 2.28734 19.0847C2.28323 19.0579 2.29704 19.0315 2.32147 19.0194L15.8961 12.2995ZM15.9347 12.42L2.55224 19.0449L5.09798 19.4576L6.21069 18.8995C6.22284 18.8934 6.23664 18.8914 6.25003 18.8937L10.6718 19.6677C10.7019 19.673 10.7239 19.6989 10.7239 19.7292V20.3774L13.3712 20.7989L25.5632 13.7279L15.9347 12.42Z" fill="#232323"/>
<path d="M25.7525 13.696V2.04297L13.3931 7.02265V20.8712L25.7525 13.696Z" fill="white"/>
<path fill-rule="evenodd" clip-rule="evenodd" d="M25.7875 1.99113C25.8049 2.00274 25.8153 2.02217 25.8153 2.04297V13.696C25.8153 13.7183 25.8035 13.7388 25.7842 13.75L13.4248 20.9252C13.4054 20.9365 13.3813 20.9366 13.3617 20.9255C13.3421 20.9143 13.3301 20.8936 13.3301 20.8713V7.02266C13.3301 6.99723 13.3456 6.97432 13.3694 6.96475L25.7288 1.98506C25.7481 1.97724 25.7702 1.97951 25.7875 1.99113ZM13.456 7.06474V20.7623L25.6894 13.6602V2.1358L13.456 7.06474Z" fill="#232323"/>
<path d="M25.2262 13.4467V2.99219L24.6523 3.22943L24.0784 3.46664L23.3491 3.76813L22.5122 4.1141L21.4958 4.53419L20.4557 4.96418L19.4154 5.39417L18.2079 5.89333L16.9165 6.4271L15.5803 6.97941L14.0588 7.60834V19.8073L15.5803 18.9407L16.9165 18.1797L18.2079 17.4442L19.4154 16.7564L20.4557 16.1639L21.4958 15.5715L22.5122 14.9926L23.3491 14.5159L24.0784 14.1005L24.6523 13.7736L25.2262 13.4467Z" fill="white"/>
<path fill-rule="evenodd" clip-rule="evenodd" d="M25.2612 2.94018C25.2788 2.95178 25.2893 2.97128 25.2893 2.99218V13.4467C25.2893 13.4691 25.2772 13.4898 25.2576 13.5009L14.0902 19.8615C14.0707 19.8726 14.0467 19.8725 14.0273 19.8613C14.0078 19.8502 13.9958 19.8296 13.9958 19.8073V7.60833C13.9958 7.58309 14.0111 7.56032 14.0346 7.55064L25.2022 2.93449C25.2215 2.92646 25.2438 2.9286 25.2612 2.94018ZM24.7154 3.27109V13.6657L25.1634 13.4105V3.08593L24.7154 3.27109ZM24.5895 13.7374V3.32314L24.1415 3.50833V13.9925L24.5895 13.7374ZM24.0156 14.0643V3.56039L23.4122 3.80978V14.408L24.0156 14.0643ZM23.2861 14.4797V3.86187L22.5752 4.15576V14.8847L23.2861 14.4797ZM22.4493 14.9564V4.20782L21.5589 4.57585V15.4635L22.4493 14.9564ZM21.433 15.5352V4.62791L20.5186 5.00584V16.056L21.433 15.5352ZM20.3926 16.1277V5.0579L19.4785 5.43583V16.6484L20.3926 16.1277ZM19.3523 16.7202V5.48789L18.2707 5.93501V17.3363L19.3523 16.7202ZM18.1448 17.408V5.98707L16.9793 6.46876V18.0717L18.1448 17.408ZM16.8534 18.1435V6.52084L15.6434 7.02107V18.8327L16.8534 18.1435ZM15.5175 18.9045V7.07313L14.1218 7.64999V19.6993L15.5175 18.9045Z" fill="#232323"/>
<path fill-rule="evenodd" clip-rule="evenodd" d="M7.82446 19.2728V7.27734H7.95043V19.2728H7.82446Z" fill="#232323"/>
<path d="M2.39355 19.081L5.15045 19.5286L6.25004 18.9565L10.6643 19.7223V20.4238L13.4212 20.8714V7.04527L2.39355 5.74023V19.081Z" fill="white"/>
<path fill-rule="evenodd" clip-rule="evenodd" d="M2.35172 5.69352C2.3652 5.68164 2.38313 5.67606 2.40101 5.67817L13.4286 6.98321C13.4603 6.98695 13.4841 7.0136 13.4841 7.04525V20.8714C13.4841 20.8897 13.476 20.9072 13.4619 20.919C13.4478 20.9309 13.4292 20.9361 13.411 20.9331L10.6541 20.4855C10.6236 20.4805 10.6013 20.4544 10.6013 20.4238V19.7748L6.26031 19.0217L5.1797 19.5839C5.1676 19.5902 5.15377 19.5925 5.14027 19.5903L2.38338 19.1426C2.35294 19.1377 2.33057 19.1116 2.33057 19.081V5.74024C2.33057 5.72237 2.33828 5.70537 2.35172 5.69352ZM2.45653 5.81064V19.0279L5.13986 19.4635L6.2208 18.9011C6.23311 18.8947 6.24719 18.8925 6.26088 18.8949L10.6751 19.6607C10.7052 19.6659 10.7272 19.6919 10.7272 19.7223V20.3707L13.3582 20.7979V7.10075L2.45653 5.81064Z" fill="#232323"/>
<path d="M8.26514 19.3211L12.7041 20.0734V8.49859L8.26514 7.95898V19.3211Z" fill="white"/>
<path fill-rule="evenodd" clip-rule="evenodd" d="M8.22339 7.91218C8.23689 7.9003 8.25488 7.89478 8.27276 7.89695L12.7118 8.43655C12.7434 8.4404 12.7671 8.46702 12.7671 8.49859V20.0734C12.7671 20.0918 12.7589 20.1093 12.7447 20.1212C12.7305 20.133 12.7118 20.1381 12.6935 20.135L8.25452 19.3827C8.22427 19.3776 8.20215 19.3516 8.20215 19.3211V7.95899C8.20215 7.94109 8.20986 7.92404 8.22339 7.91218ZM8.32808 8.02961V19.2684L12.6411 19.9993V8.5539L8.32808 8.02961Z" fill="#232323"/>
<path d="M3.09058 18.4383L7.49888 19.1805V7.8572L3.09058 7.32227V18.4383Z" fill="white"/>
<path fill-rule="evenodd" clip-rule="evenodd" d="M3.0488 7.27546C3.0623 7.26361 3.08029 7.25806 3.0982 7.26023L7.50648 7.79516C7.53808 7.79901 7.56182 7.82563 7.56182 7.8572V19.1805C7.56182 19.1989 7.55364 19.2163 7.53948 19.2282C7.52532 19.2401 7.50659 19.2452 7.48832 19.2421L3.08002 18.4999C3.04974 18.4948 3.02759 18.4688 3.02759 18.4383V7.32227C3.02759 7.30437 3.0353 7.28732 3.0488 7.27546ZM3.15352 7.39286V18.3855L7.43586 19.1065V7.91253L3.15352 7.39286Z" fill="#232323"/>
<path fill-rule="evenodd" clip-rule="evenodd" d="M6.55001 6.62891C6.61957 6.62891 6.67597 6.6849 6.67597 6.75392L6.67594 18.9654C6.67594 19.0344 6.61957 19.0904 6.55001 19.0904C6.48044 19.0904 6.42407 19.0344 6.42407 18.9654V6.75392C6.42407 6.6849 6.48047 6.62891 6.55001 6.62891Z" fill="#232323"/>
<path fill-rule="evenodd" clip-rule="evenodd" d="M4.75655 6.39258C4.82612 6.39258 4.88251 6.44854 4.88251 6.51759V18.764C4.88251 18.833 4.82612 18.889 4.75655 18.889C4.68698 18.889 4.63062 18.833 4.63062 18.764V6.51759C4.63062 6.44854 4.68698 6.39258 4.75655 6.39258Z" fill="#232323"/>
<path fill-rule="evenodd" clip-rule="evenodd" d="M9.18062 6.91992C9.25019 6.91992 9.30659 6.97588 9.30659 7.04491V19.4104C9.30659 19.4795 9.25019 19.5354 9.18062 19.5354C9.11106 19.5354 9.05469 19.4795 9.05469 19.4104V7.04491C9.05469 6.97588 9.11106 6.91992 9.18062 6.91992Z" fill="#232323"/>
<path fill-rule="evenodd" clip-rule="evenodd" d="M10.8545 7.10156C10.924 7.10156 10.9804 7.15753 10.9804 7.22655V19.691C10.9804 19.76 10.924 19.816 10.8545 19.816C10.7849 19.816 10.7285 19.76 10.7285 19.691V7.22655C10.7285 7.15753 10.7849 7.10156 10.8545 7.10156Z" fill="#232323"/>
<path d="M12.5522 9.37762L13.4095 9.57936V8.80834L12.5522 8.78711V9.37762Z" fill="white"/>
<path fill-rule="evenodd" clip-rule="evenodd" d="M12.5082 8.74237C12.5204 8.7306 12.5368 8.72419 12.5538 8.72463L13.4111 8.74583C13.4452 8.74669 13.4724 8.77441 13.4724 8.80831V9.57936C13.4724 9.59847 13.4637 9.61651 13.4485 9.62836C13.4334 9.64022 13.4137 9.64456 13.3949 9.64016L12.5377 9.43842C12.5093 9.43174 12.4893 9.40658 12.4893 9.37762V8.78711C12.4893 8.77025 12.4961 8.75414 12.5082 8.74237ZM12.6152 8.85119V9.3282L13.3465 9.5003V8.86928L12.6152 8.85119Z" fill="#232323"/>
<path d="M3.24641 8.17937L2.38916 8.16465V7.26562L3.24641 7.46737V8.17937Z" fill="white"/>
<path fill-rule="evenodd" clip-rule="evenodd" d="M2.35009 7.2166C2.33496 7.22846 2.32617 7.24652 2.32617 7.26564V8.16467C2.32617 8.19877 2.3537 8.22657 2.38805 8.22717L3.2453 8.24186C3.26219 8.24216 3.27847 8.2357 3.29054 8.22393C3.30258 8.21219 3.30936 8.19613 3.30936 8.17938V7.46738C3.30936 7.43839 3.2893 7.41323 3.26092 7.40655L2.40367 7.20481C2.38494 7.20041 2.36518 7.20475 2.35009 7.2166ZM3.18342 7.51679V8.11577L2.45211 8.10326V7.3447L3.18342 7.51679Z" fill="#232323"/>
<path d="M3.24641 11.3708L2.38916 11.3561V10.457L3.24641 10.6588V11.3708Z" fill="white"/>
<path fill-rule="evenodd" clip-rule="evenodd" d="M2.35009 10.408C2.33496 10.4199 2.32617 10.4379 2.32617 10.457V11.3561C2.32617 11.3902 2.3537 11.418 2.38805 11.4186L3.2453 11.4333C3.26219 11.4335 3.27847 11.4271 3.29054 11.4153C3.30258 11.4036 3.30936 11.3875 3.30936 11.3708V10.6588C3.30936 10.6298 3.2893 10.6046 3.26092 10.598L2.40367 10.3962C2.38494 10.3918 2.36518 10.3962 2.35009 10.408ZM3.18342 10.7082V11.3072L2.45211 11.2946V10.5361L3.18342 10.7082Z" fill="#232323"/>
<path d="M3.24641 14.4801L2.38916 14.4654V13.5664L3.24641 13.7681V14.4801Z" fill="white"/>
<path fill-rule="evenodd" clip-rule="evenodd" d="M2.35009 13.5174C2.33496 13.5292 2.32617 13.5473 2.32617 13.5664V14.4654C2.32617 14.4995 2.3537 14.5273 2.38805 14.5279L3.2453 14.5426C3.26219 14.5429 3.27847 14.5365 3.29054 14.5247C3.30258 14.513 3.30936 14.4969 3.30936 14.4801V13.7681C3.30936 13.7392 3.2893 13.714 3.26092 13.7073L2.40367 13.5056C2.38494 13.5012 2.36518 13.5055 2.35009 13.5174ZM3.18342 13.8175V14.4166L2.45211 14.404V13.6455L3.18342 13.8175Z" fill="#232323"/>
<path d="M3.24641 17.6598L2.38916 17.6452V16.7461L3.24641 16.9478V17.6598Z" fill="white"/>
<path fill-rule="evenodd" clip-rule="evenodd" d="M2.35009 16.6971C2.33496 16.7089 2.32617 16.727 2.32617 16.7461V17.6451C2.32617 17.6792 2.3537 17.707 2.38805 17.7076L3.2453 17.7223C3.26219 17.7226 3.27847 17.7162 3.29054 17.7044C3.30258 17.6927 3.30936 17.6766 3.30936 17.6598V16.9478C3.30936 16.9189 3.2893 16.8937 3.26092 16.887L2.40367 16.6853C2.38494 16.6809 2.36518 16.6852 2.35009 16.6971ZM3.18342 16.9972V17.5962L2.45211 17.5837V16.8251L3.18342 16.9972Z" fill="#232323"/>
<path d="M12.5522 12.6608L13.4095 12.8626V12.0915L12.5522 12.0703V12.6608Z" fill="white"/>
<path fill-rule="evenodd" clip-rule="evenodd" d="M12.5082 12.0256C12.5204 12.0138 12.5368 12.0074 12.5538 12.0078L13.4111 12.029C13.4452 12.0299 13.4724 12.0576 13.4724 12.0915V12.8625C13.4724 12.8816 13.4637 12.8997 13.4485 12.9116C13.4334 12.9234 13.4137 12.9278 13.3949 12.9234L12.5377 12.7216C12.5093 12.7149 12.4893 12.6898 12.4893 12.6608V12.0703C12.4893 12.0535 12.4961 12.0373 12.5082 12.0256ZM12.6152 12.1344V12.6114L13.3465 12.7835V12.1525L12.6152 12.1344Z" fill="#232323"/>
<path d="M12.5522 15.946L13.4095 16.1477V15.3767L12.5522 15.3555V15.946Z" fill="white"/>
<path fill-rule="evenodd" clip-rule="evenodd" d="M12.5082 15.3107C12.5204 15.299 12.5368 15.2926 12.5538 15.293L13.4111 15.3142C13.4452 15.315 13.4724 15.3428 13.4724 15.3767V16.1477C13.4724 16.1668 13.4637 16.1849 13.4485 16.1967C13.4334 16.2086 13.4137 16.2129 13.3949 16.2085L12.5377 16.0068C12.5093 16.0001 12.4893 15.9749 12.4893 15.946V15.3555C12.4893 15.3386 12.4961 15.3225 12.5082 15.3107ZM12.6152 15.4195V15.8966L13.3465 16.0687V15.4376L12.6152 15.4195Z" fill="#232323"/>
<path d="M12.5522 19.2292L13.4095 19.41V18.6599L12.5522 18.6387V19.2292Z" fill="white"/>
<path fill-rule="evenodd" clip-rule="evenodd" d="M12.5082 18.5939C12.5204 18.5822 12.5368 18.5758 12.5538 18.5762L13.4111 18.5974C13.4452 18.5982 13.4724 18.626 13.4724 18.6599V19.41C13.4724 19.4289 13.4639 19.4467 13.4491 19.4586C13.4343 19.4704 13.415 19.4751 13.3964 19.4712L12.5391 19.2903C12.5101 19.2842 12.4893 19.2587 12.4893 19.2292V18.6387C12.4893 18.6218 12.4961 18.6057 12.5082 18.5939ZM12.6152 18.7027V19.1786L13.3465 19.3328V18.7208L12.6152 18.7027Z" fill="#232323"/>
<path fill-rule="evenodd" clip-rule="evenodd" d="M13.3844 7.94753L2.35864 6.65538L2.37341 6.53125L13.3992 7.82339L13.3844 7.94753Z" fill="#232323"/>
<path fill-rule="evenodd" clip-rule="evenodd" d="M13.3825 20.2512L2.35791 18.3752L2.37921 18.252L13.4038 20.128L13.3825 20.2512Z" fill="#232323"/>
<path d="M2.35721 19.0564L5.15126 19.5355V18.7894L2.35718 18.3242L2.35721 19.0564Z" fill="white"/>
<path fill-rule="evenodd" clip-rule="evenodd" d="M2.31648 18.2765C2.33064 18.2646 2.34932 18.2595 2.36759 18.2626L5.16167 18.7278C5.19201 18.7329 5.21421 18.7589 5.21421 18.7894V19.5355C5.21421 19.5539 5.206 19.5714 5.19181 19.5833C5.1776 19.5952 5.15883 19.6002 5.14051 19.5971L2.34645 19.1179C2.31626 19.1128 2.29422 19.0868 2.29422 19.0564L2.29419 18.3242C2.29419 18.3058 2.30235 18.2884 2.31648 18.2765ZM2.42015 18.3981V19.0037L5.08828 19.4613V18.8423L2.42015 18.3981Z" fill="#232323"/>
<path d="M15.9271 1.12891L25.7526 2.04403L13.3931 7.0237L2.36548 5.71866L15.9271 1.12891Z" fill="white"/>
<path fill-rule="evenodd" clip-rule="evenodd" d="M15.9066 1.06975C15.9151 1.0669 15.924 1.06585 15.9328 1.06668L25.7583 1.98181C25.7872 1.9845 25.8106 2.00644 25.8148 2.03494C25.8189 2.06344 25.8032 2.09111 25.7762 2.10194L13.4168 7.08159C13.4069 7.08558 13.3962 7.08701 13.3856 7.08574L2.35802 5.78073C2.32882 5.77726 2.30592 5.75425 2.30283 5.72521C2.29978 5.69619 2.31733 5.66894 2.34515 5.65951L15.9066 1.06975ZM15.9344 1.19238L2.64783 5.68913L13.3844 6.95971L25.4899 2.08235L15.9344 1.19238Z" fill="#232323"/>
</svg>
