<svg width="20" height="20" viewBox="0 0 20 20" fill="none" xmlns="http://www.w3.org/2000/svg">
<path d="M17.0165 10.308C17.7415 10.5997 18.1915 11.458 18.0249 12.2164L17.6832 13.7664C17.0915 16.433 14.9999 18.333 11.9832 18.333H8.01653C4.99986 18.333 2.90821 16.433 2.31654 13.7664L1.97486 12.2164C1.8082 11.458 2.25819 10.5997 2.98319 10.308L4.16654 9.83305L8.75821 7.99141C9.55821 7.67474 10.4415 7.67474 11.2415 7.99141L15.8332 9.83305L17.0165 10.308Z" stroke="white" stroke-width="1.5" stroke-linecap="round" stroke-linejoin="round"/>
<path d="M10 18.334V8.33398" stroke="white" stroke-width="1.5" stroke-linecap="round" stroke-linejoin="round"/>
<path d="M15.8334 6.66602V9.83268L11.2417 7.99102C10.4417 7.67435 9.55842 7.67435 8.75842 7.99102L4.16675 9.83268V6.66602C4.16675 5.29102 5.29175 4.16602 6.66675 4.16602H13.3334C14.7084 4.16602 15.8334 5.29102 15.8334 6.66602Z" stroke="white" stroke-width="1.5" stroke-linecap="round" stroke-linejoin="round"/>
<path d="M12.0834 4.16602H7.91675V2.49935C7.91675 2.04102 8.29175 1.66602 8.75008 1.66602H11.2501C11.7084 1.66602 12.0834 2.04102 12.0834 2.49935V4.16602Z" stroke="white" stroke-width="1.5" stroke-linecap="round" stroke-linejoin="round"/>
</svg>
